<?xml version="1.0" encoding="UTF-8" standalone="no"?>
<svg
   xmlns:dc="http://purl.org/dc/elements/1.1/"
   xmlns:cc="http://creativecommons.org/ns#"
   xmlns:rdf="http://www.w3.org/1999/02/22-rdf-syntax-ns#"
   xmlns:svg="http://www.w3.org/2000/svg"
   xmlns="http://www.w3.org/2000/svg"
   xmlns:sodipodi="http://sodipodi.sourceforge.net/DTD/sodipodi-0.dtd"
   xmlns:inkscape="http://www.inkscape.org/namespaces/inkscape"
   sodipodi:docname="frontpage-illustration.svg"
   inkscape:version="1.0 (4035a4fb49, 2020-05-01)"
   id="svg8"
   version="1.1"
   viewBox="0 0 242.48482 72.829229"
   height="7.2829199cm"
   width="24.24848cm">
  <defs
     id="defs2">
    <inkscape:path-effect
       lpeversion="1"
       is_visible="true"
       id="path-effect3337"
       effect="spiro" />
    <inkscape:path-effect
       simplify_just_coalesce="false"
       simplify_individual_paths="false"
       helper_size="0"
       smooth_angles="360"
       threshold="0.000967742"
       steps="1"
       lpeversion="1"
       is_visible="true"
       id="path-effect3335"
       effect="simplify" />
    <inkscape:path-effect
       effect="spiro"
       id="path-effect3139"
       is_visible="true"
       lpeversion="1" />
    <inkscape:path-effect
       effect="simplify"
       id="path-effect3137"
       is_visible="true"
       lpeversion="1"
       steps="1"
       threshold="0.00108696"
       smooth_angles="360"
       helper_size="0"
       simplify_individual_paths="false"
       simplify_just_coalesce="false" />
    <inkscape:path-effect
       lpeversion="1"
       is_visible="true"
       id="path-effect2307"
       effect="spiro" />
    <inkscape:path-effect
       simplify_just_coalesce="false"
       simplify_individual_paths="false"
       helper_size="0"
       smooth_angles="360"
       threshold="0.000967742"
       steps="1"
       lpeversion="1"
       is_visible="true"
       id="path-effect2305"
       effect="simplify" />
    <inkscape:path-effect
       lpeversion="1"
       is_visible="true"
       id="path-effect2288"
       effect="spiro" />
    <inkscape:path-effect
       simplify_just_coalesce="false"
       simplify_individual_paths="false"
       helper_size="0"
       smooth_angles="360"
       threshold="0.000967742"
       steps="1"
       lpeversion="1"
       is_visible="true"
       id="path-effect2286"
       effect="simplify" />
    <inkscape:path-effect
       effect="spiro"
       id="path-effect2255"
       is_visible="true"
       lpeversion="1" />
    <inkscape:path-effect
       effect="simplify"
       id="path-effect2253"
       is_visible="true"
       lpeversion="1"
       steps="1"
       threshold="0.00108696"
       smooth_angles="360"
       helper_size="0"
       simplify_individual_paths="false"
       simplify_just_coalesce="false" />
    <inkscape:path-effect
       lpeversion="1"
       is_visible="true"
       id="path-effect1526"
       effect="spiro" />
    <inkscape:path-effect
       simplify_just_coalesce="false"
       simplify_individual_paths="false"
       helper_size="0"
       smooth_angles="360"
       threshold="0.0002"
       steps="1"
       lpeversion="1"
       is_visible="true"
       id="path-effect1524"
       effect="simplify" />
    <inkscape:path-effect
       lpeversion="1"
       is_visible="true"
       id="path-effect1520"
       effect="spiro" />
    <inkscape:path-effect
       simplify_just_coalesce="false"
       simplify_individual_paths="false"
       helper_size="0"
       smooth_angles="360"
       threshold="0.0002"
       steps="1"
       lpeversion="1"
       is_visible="true"
       id="path-effect1518"
       effect="simplify" />
    <inkscape:path-effect
       effect="spiro"
       id="path-effect1498"
       is_visible="true"
       lpeversion="1" />
    <inkscape:path-effect
       effect="simplify"
       id="path-effect1496"
       is_visible="true"
       lpeversion="1"
       steps="1"
       threshold="0.00108696"
       smooth_angles="360"
       helper_size="0"
       simplify_individual_paths="false"
       simplify_just_coalesce="false" />
    <inkscape:path-effect
       lpeversion="1"
       is_visible="true"
       id="path-effect1492"
       effect="spiro" />
    <inkscape:path-effect
       simplify_just_coalesce="false"
       simplify_individual_paths="false"
       helper_size="0"
       smooth_angles="360"
       threshold="0.00108696"
       steps="1"
       lpeversion="1"
       is_visible="true"
       id="path-effect1490"
       effect="simplify" />
    <inkscape:path-effect
       effect="spiro"
       id="path-effect1469"
       is_visible="true"
       lpeversion="1" />
    <inkscape:path-effect
       effect="simplify"
       id="path-effect1467"
       is_visible="true"
       lpeversion="1"
       steps="1"
       threshold="0.00108696"
       smooth_angles="360"
       helper_size="0"
       simplify_individual_paths="false"
       simplify_just_coalesce="false" />
    <inkscape:path-effect
       effect="spiro"
       id="path-effect1451"
       is_visible="true"
       lpeversion="1" />
    <inkscape:path-effect
       effect="simplify"
       id="path-effect1449"
       is_visible="true"
       lpeversion="1"
       steps="1"
       threshold="0.00108696"
       smooth_angles="360"
       helper_size="0"
       simplify_individual_paths="false"
       simplify_just_coalesce="false" />
    <inkscape:path-effect
       lpeversion="1"
       is_visible="true"
       id="path-effect1431"
       effect="spiro" />
    <inkscape:path-effect
       simplify_just_coalesce="false"
       simplify_individual_paths="false"
       helper_size="0"
       smooth_angles="360"
       threshold="0.00108696"
       steps="1"
       lpeversion="1"
       is_visible="true"
       id="path-effect1429"
       effect="simplify" />
    <inkscape:path-effect
       only_selected="false"
       apply_with_weight="true"
       apply_no_weight="true"
       helper_size="0"
       steps="2"
       weight="33.333333"
       lpeversion="1"
       is_visible="true"
       id="path-effect1425"
       effect="bspline" />
    <inkscape:path-effect
       lpeversion="1"
       is_visible="true"
       id="path-effect1419"
       effect="spiro" />
    <inkscape:path-effect
       lpeversion="1"
       is_visible="true"
       id="path-effect1405"
       effect="spiro" />
    <inkscape:path-effect
       simplify_just_coalesce="false"
       simplify_individual_paths="false"
       helper_size="0"
       smooth_angles="360"
       threshold="0.000251256"
       steps="1"
       lpeversion="1"
       is_visible="true"
       id="path-effect1403"
       effect="simplify" />
    <inkscape:path-effect
       effect="spiro"
       id="path-effect1207"
       is_visible="true"
       lpeversion="1" />
    <inkscape:path-effect
       lpeversion="1"
       is_visible="true"
       id="path-effect1189"
       effect="spiro" />
    <inkscape:path-effect
       effect="spiro"
       id="path-effect2824"
       is_visible="true"
       lpeversion="1" />
    <inkscape:path-effect
       effect="simplify"
       id="path-effect2822"
       is_visible="true"
       lpeversion="1"
       steps="1"
       threshold="0.000909091"
       smooth_angles="360"
       helper_size="0"
       simplify_individual_paths="false"
       simplify_just_coalesce="false" />
    <inkscape:path-effect
       effect="spiro"
       id="path-effect2636"
       is_visible="true"
       lpeversion="1" />
    <inkscape:path-effect
       effect="simplify"
       id="path-effect2634"
       is_visible="true"
       lpeversion="1"
       steps="1"
       threshold="0.000909091"
       smooth_angles="360"
       helper_size="0"
       simplify_individual_paths="false"
       simplify_just_coalesce="false" />
    <style
       id="style4605">.cls-1{fill:#eeeeee;}.cls-2{fill:#eeeeee;}</style>
    <filter
       height="1.3374459"
       y="-0.16872294"
       width="1.1264801"
       x="-0.063240036"
       id="filter3455"
       style="color-interpolation-filters:sRGB"
       inkscape:collect="always">
      <feGaussianBlur
         id="feGaussianBlur3457"
         stdDeviation="6.6782494"
         inkscape:collect="always" />
    </filter>
  </defs>
  <sodipodi:namedview
     showguides="false"
     inkscape:window-maximized="0"
     inkscape:window-y="27"
     inkscape:window-x="232"
     inkscape:window-height="1016"
     inkscape:window-width="1530"
     showgrid="false"
     inkscape:document-rotation="0"
     inkscape:current-layer="layer1"
     inkscape:document-units="mm"
     inkscape:cy="120.86167"
     inkscape:cx="330.50501"
     inkscape:zoom="0.5"
     inkscape:pageshadow="2"
     inkscape:pageopacity="0.0"
     borderopacity="1.0"
     bordercolor="#666666"
     pagecolor="#ffffff"
     id="base"
     inkscape:snap-object-midpoints="true"
     inkscape:snap-center="true"
     inkscape:snap-smooth-nodes="true"
     inkscape:snap-intersection-paths="true"
     inkscape:object-paths="true"
     inkscape:snap-bbox="true"
     inkscape:snap-bbox-midpoints="true"
     inkscape:snap-global="false"
     units="cm"
     fit-margin-top="0"
     fit-margin-left="0"
     lock-margins="true"
     fit-margin-right="0"
     fit-margin-bottom="0"
     inkscape:snap-page="true" />
  <metadata
     id="metadata5">
    <rdf:RDF>
      <cc:Work
         rdf:about="">
        <dc:format>image/svg+xml</dc:format>
        <dc:type
           rdf:resource="http://purl.org/dc/dcmitype/StillImage" />
        <dc:title></dc:title>
      </cc:Work>
    </rdf:RDF>
  </metadata>
  <g
     id="layer1"
     inkscape:groupmode="layer"
     inkscape:label="Layer 1"
     transform="translate(-642.97015,-118.38303)">
    <g
       transform="translate(0,-6.8791668)"
       id="stroke-animation" />
    <g
       id="g2769"
       transform="matrix(0.59501631,0,0,0.59501631,265.49661,50.648819)">
      <path
         style="fill:#f1f9f9;fill-opacity:1;stroke:none;stroke-width:0;stroke-linecap:butt;stroke-linejoin:miter;stroke-miterlimit:4;stroke-dasharray:none;stroke-opacity:1;filter:url(#filter3455)"
         d="m 765.19938,129.59682 c 17.41829,1.79781 34.65556,5.34486 51.36848,10.57049 10.82889,3.38587 21.64846,7.51446 32.9879,7.8964 10.91126,0.36752 21.59397,-2.76119 32.37582,-4.47658 12.77279,-2.03215 25.77154,-2.08363 38.64341,-3.34412 4.10597,-0.40208 8.20033,-0.92742 12.27033,-1.6025 1.66602,-0.27634 3.34225,-0.57883 5.03018,-0.52505 1.68793,0.0538 3.41484,0.49478 4.72724,1.55761 0.86887,0.70364 1.52164,1.65401 1.94914,2.68711 0.42749,1.0331 0.63611,2.14792 0.70086,3.2641 0.12949,2.23236 -0.30525,4.4529 -0.57486,6.6727 -0.54655,4.49991 -0.37534,9.24259 1.63254,13.30661 1.67099,3.38214 4.47525,6.03836 7.09684,8.75098 2.6216,2.71262 5.19021,5.69218 6.18068,9.33224 0.65805,2.41841 0.57222,4.96767 0.50865,7.4732 -0.0636,2.50554 -0.0927,5.06438 0.66955,7.45201 0.65375,2.0478 1.87367,3.88924 3.37826,5.42453 1.50459,1.53529 3.28926,2.7754 5.16885,3.81849 1.51382,0.8401 3.11168,1.56905 4.43052,2.69069 0.65942,0.56082 1.24401,1.21966 1.6571,1.98039 0.41308,0.76073 0.64952,1.62743 0.6056,2.49197 -0.0662,1.30357 -0.76603,2.51601 -1.7058,3.42183 -0.93978,0.90582 -2.10685,1.53871 -3.29217,2.08526 -6.18768,2.85314 -13.15161,3.59849 -19.96476,3.50447 -9.86005,-0.13607 -19.72867,-1.97077 -28.84135,-5.73881 -10.00697,-4.13783 -18.90738,-10.49381 -28.24554,-15.9765 -14.30841,-8.40086 -29.87992,-14.83486 -46.19491,-17.85582 -2.7817,-0.51507 -5.59534,-0.93184 -8.42429,-0.91776 -2.82895,0.0141 -5.68669,0.472 -8.26239,1.64202 -2.45037,1.11309 -4.581,2.83912 -6.45377,4.772 -1.87276,1.93288 -3.5078,4.07966 -5.17691,6.1909 -3.53128,4.46667 -7.26967,8.83072 -11.76392,12.32683 -7.0294,5.46821 -15.55963,8.56129 -23.82855,11.86868 -3.37868,1.3514 -6.76432,2.75995 -10.33421,3.46538 -8.53129,1.68584 -17.26018,-0.75848 -25.91736,-1.58195 -3.52832,-0.33561 -7.08685,-0.40175 -10.58452,-0.97444 -3.49767,-0.5727 -6.99202,-1.69435 -9.76822,-3.89762 -1.55593,-1.23483 -2.86046,-2.79947 -3.72044,-4.59004 -0.85998,-1.79058 -1.26675,-3.80826 -1.08501,-5.78631 0.17828,-1.94038 0.91372,-3.80385 1.95074,-5.45353 1.03702,-1.64967 2.36966,-3.09662 3.80259,-4.41705 2.86586,-2.64087 6.16172,-4.81614 8.79716,-7.687 2.78816,-3.03721 4.74203,-6.75718 6.21836,-10.60671 2.18748,-5.70388 3.38927,-11.88752 2.6412,-17.9505 -0.34737,-2.81533 -1.10684,-5.56191 -1.62205,-8.35141 -0.5152,-2.78951 -0.78243,-5.68429 -0.14378,-8.44814 0.56851,-2.46032 1.84577,-4.72983 3.52291,-6.61758 1.67714,-1.88774 3.74554,-3.40427 5.96881,-4.60152 3.57031,-1.92264 7.57124,-3.04017 11.62109,-3.24595 z"
         id="path3333"
         inkscape:path-effect="#path-effect3335;#path-effect3337"
         inkscape:original-d="m 765.19938,129.59682 c 16.46501,0.15135 32.63709,5.14721 48.39705,9.69036 10.44353,3.01057 22.25772,7.43503 33.06671,8.57829 10.30824,1.09029 20.3591,-2.11873 30.40848,-3.61632 13.82344,-2.06001 27.64947,-2.5167 41.50858,-3.76308 4.27112,-0.38411 8.43016,-1.75079 12.71654,-1.75079 2.48994,0 6.59069,-1.08387 8.98033,-0.28733 5.77344,1.92449 6.17876,8.59645 4.50307,13.54026 -4.48804,13.24113 7.09248,17.85768 13.1744,28.04584 4.66278,7.81089 1.03823,15.6612 3.46647,20.54138 2.60088,5.22719 11.00764,7.9588 13.93917,12.84469 1.78017,2.96694 0.0515,5.28788 -2.90729,6.5381 -5.06595,2.14055 -10.91348,2.91087 -16.3122,3.59358 -25.06721,3.16995 -36.76145,-6.79504 -57.17893,-18.40094 -19.35688,-11.00301 -39.29606,-22.37354 -62.27527,-20.97857 -15.32404,0.93027 -15.06469,12.97835 -24.71994,21.20491 -6.67901,5.69073 -15.29561,8.04563 -22.99084,11.88868 -4.09451,2.04482 -7.46671,5.30392 -12.07885,6.12573 -7.98281,1.42239 -16.1753,-0.49961 -24.136,-0.98496 -7.4151,-0.45208 -14.48154,0.31376 -21.51289,-2.74091 -5.00257,-2.1733 -10.86388,-7.27535 -8.6186,-13.24674 3.72559,-9.90836 16.29428,-15.60876 19.67322,-24.89047 1.90665,-5.23745 4.18349,-14.44201 3.61941,-20.01118 -1.42783,-14.09711 -6.62688,-21.5011 9.06715,-29.41526 3.87966,-1.95643 6.14457,-3.20235 10.21023,-2.50527 z" />
      <g
         id="g3165"
         transform="matrix(-0.03721611,-0.53904738,-0.66880296,0.02999575,1018.4873,657.00847)"
         style="stroke-width:1.6629">
        <path
           d="m 690.67969,109.86719 c -11.8209,0.64063 -22.95967,9.29825 -27.12891,21.03125 -2.32537,0.65173 -5.73319,1.52087 -10.17383,3.92383 -4.75314,2.57206 -10.46896,7.75252 -13.51953,14.4414 -8.46598,15.88896 -5.52068,31.90559 -2.07812,43.47071 a 19.368651,19.368651 0 0 0 1.5664,3.75976 c 8.76896,16.05129 27.99762,24.26936 45.62696,16.46875 0.19345,0.0828 0.27888,0.073 2.14843,0.75195 2.53774,0.92169 6.15959,2.44853 11.82227,2.95118 5.66268,0.50264 14.09057,-1.14227 20.0918,-5.89063 a 19.368651,19.368651 0 0 0 4.25,-4.67969 c 2.26449,-3.50563 3.56489,-7.83165 4.08007,-11.93945 1.64182,0.0188 3.33092,-0.0741 5.11719,-0.44727 10.39335,-2.17141 15.67216,-10.53296 17.64258,-15.96484 3.39399,-9.35626 3.43501,-16.63569 -0.55859,-25.28516 a 19.368651,19.368651 0 0 0 -4.36524,-12.23632 c -8.77695,-10.75049 -19.4964,-12.70178 -24.125,-14.3418 -1.88441,-0.66769 -2.09558,-0.61898 -2.24414,-0.53516 a 19.368651,19.368651 0 0 0 -3.30859,-5.09375 c -6.4436,-7.1481 -16.00075,-10.86403 -24.84375,-10.38476 z m -0.80078,100.67773 -1.6543,0.9375 c -0.38804,0.19525 -0.63776,0.22801 -0.98438,0.36328 0.87697,-0.46269 1.77404,-0.75338 2.63868,-1.30078 z"
           inkscape:original="M 691.72852 129.20508 C 686.24736 129.50213 681.22827 133.72486 681.0957 140.43945 C 677.89003 152.04571 662.01732 146.67807 657.38477 157.39258 C 652.20663 166.25957 653.53483 177.77909 656.3418 187.20898 C 660.62672 195.05238 671.61074 199.18872 679.51953 194.18164 C 688.719 189.55276 699.05555 201.8877 707.01758 195.58789 C 711.79556 188.19114 702.21302 181.89209 703.37305 174.51953 C 704.40496 164.66256 717.64336 165.41702 722.40039 172.02734 C 732.41318 181.34587 734.94735 165.00134 730.86523 158.05078 C 730.47681 156.21835 730.1325 154.35297 730.19922 152.4707 C 722.4668 142.99962 706.04075 146.13464 701.13867 133.21875 C 698.47208 130.26061 695.01721 129.02684 691.72852 129.20508 z "
           inkscape:radius="19.366714"
           sodipodi:type="inkscape:offset"
           style="font-variation-settings:normal;vector-effect:none;fill:#f1f9f9;fill-opacity:1;stroke:none;stroke-width:4.91827;stroke-linecap:round;stroke-linejoin:round;stroke-miterlimit:4;stroke-dasharray:none;stroke-dashoffset:0;stroke-opacity:1;paint-order:markers fill stroke;stop-color:#000000"
           id="path3129"
           transform="matrix(-0.67334834,0.06224657,-0.06224657,-0.67334834,1316.4537,281.94618)" />
        <path
           d="m 691.23633,120.12109 c -9.18349,0.4977 -17.69976,7.92307 -18.97852,17.9961 -0.12686,0.51597 -0.01,0.39955 -0.49609,0.71289 -0.55376,0.35692 -2.15572,0.99131 -4.54102,1.68945 -2.3853,0.69814 -5.5112,1.46935 -8.95703,3.33399 -3.36519,1.821 -7.01011,5.12107 -9.06055,9.62304 -6.79411,12.24687 -4.68492,25.89754 -1.58007,36.32813 a 9.0987444,9.0987444 0 0 0 0.73437,1.76562 c 6.77591,12.40307 22.99061,18.55367 36.0293,10.29883 l -0.77734,0.43945 c 0.47909,-0.24106 2.12564,-0.0228 7.01757,1.75391 2.44597,0.88835 5.38075,2.0338 9.22461,2.375 3.84386,0.3412 8.93594,-0.64913 12.81055,-3.71484 a 9.0987444,9.0987444 0 0 0 1.99805,-2.19922 c 2.2659,-3.50782 3.08891,-7.91014 2.67382,-11.38867 -0.41508,-3.47853 -1.62127,-6.04481 -2.58984,-8.04883 -1.78569,-3.69467 -2.07528,-4.9048 -2.19726,-4.75 0.99335,0.20134 2.35306,0.84511 2.46874,1.00586 a 9.0987444,9.0987444 0 0 0 1.1875,1.3457 c 3.61424,3.36363 8.45655,6.16599 14.17774,4.9707 5.72119,-1.19529 8.7997,-5.85947 10.08984,-9.41601 2.31209,-6.37375 2.14174,-12.50927 -0.78711,-18.65821 -0.23368,-1.23154 -0.40907,-2.32554 -0.39257,-2.79101 a 9.0987444,9.0987444 0 0 0 -2.04493,-6.07617 c -6.17311,-7.56116 -14.41043,-9.31761 -19.59961,-11.15625 -5.18917,-1.83864 -6.83379,-2.49248 -8.00195,-5.57032 a 9.0987444,9.0987444 0 0 0 -1.74805,-2.86328 c -4.4409,-4.92644 -10.76223,-7.32551 -16.66015,-7.00586 z"
           id="path3131"
           style="font-variation-settings:normal;vector-effect:none;fill:#d3ebee;fill-opacity:1;stroke:none;stroke-width:4.91827;stroke-linecap:round;stroke-linejoin:round;stroke-miterlimit:4;stroke-dasharray:none;stroke-dashoffset:0;stroke-opacity:1;paint-order:markers fill stroke;stop-color:#000000"
           sodipodi:type="inkscape:offset"
           inkscape:radius="9.0978346"
           inkscape:original="M 691.72852 129.20508 C 686.24736 129.50213 681.22827 133.72486 681.0957 140.43945 C 677.89003 152.04571 662.01732 146.67807 657.38477 157.39258 C 652.20663 166.25957 653.53483 177.77909 656.3418 187.20898 C 660.62672 195.05238 671.61074 199.18872 679.51953 194.18164 C 688.719 189.55276 699.05555 201.8877 707.01758 195.58789 C 711.79556 188.19114 702.21302 181.89209 703.37305 174.51953 C 704.40496 164.66256 717.64336 165.41702 722.40039 172.02734 C 732.41318 181.34587 734.94735 165.00134 730.86523 158.05078 C 730.47681 156.21835 730.1325 154.35297 730.19922 152.4707 C 722.4668 142.99962 706.04075 146.13464 701.13867 133.21875 C 698.47208 130.26061 695.01721 129.02684 691.72852 129.20508 z "
           transform="matrix(-0.67334834,0.06224657,-0.06224657,-0.67334834,1316.4537,281.94618)" />
        <path
           id="path3133"
           style="font-variation-settings:normal;vector-effect:none;fill:#e6d8a3;fill-opacity:1;stroke:none;stroke-width:3.32582;stroke-linecap:round;stroke-linejoin:round;stroke-miterlimit:4;stroke-dasharray:none;stroke-dashoffset:0;stroke-opacity:1;paint-order:markers fill stroke;stop-color:#000000"
           d="m 842.01529,237.31752 c 1.59775,-0.0973 3.23582,-0.58229 4.36256,-1.40469 1.12676,-0.82241 1.77383,-1.88541 1.62856,-3.48904 l 0.0306,0.15899 c -0.51206,-1.68137 -0.42232,-3.17926 0.12145,-4.42539 0.54376,-1.24612 1.50187,-2.21629 2.61063,-3.00948 2.21754,-1.58635 5.10376,-2.54377 7.17727,-3.49794 0.0316,-0.0149 0.0641,-0.0276 0.0973,-0.0382 2.11402,-0.65026 3.32013,-1.93787 4.27933,-3.61072 0.95921,-1.67286 1.60489,-3.72036 2.47003,-5.6784 0.01,-0.0219 0.0207,-0.0432 0.0326,-0.064 0.4217,-0.75962 0.49339,-1.49424 0.38362,-2.33539 -0.10977,-0.84115 -0.42404,-1.76651 -0.7618,-2.74546 -0.64376,-1.86584 -1.34123,-4.03848 -0.38102,-6.24516 -0.21631,-2.33899 -1.55014,-4.03511 -3.44577,-5.42199 -1.92329,-1.40711 -4.38761,-2.42781 -6.54212,-3.2762 -0.009,-0.003 -0.0184,-0.007 -0.0276,-0.0106 -1.05758,-0.46405 -1.92727,-0.4819 -2.81017,-0.26811 -0.8829,0.21379 -1.77401,0.69112 -2.70776,1.25571 -1.86752,1.12917 -3.93444,2.65688 -6.61658,2.40358 -0.0618,-0.005 -0.12263,-0.0189 -0.18134,-0.0389 -3.63768,-1.24507 -6.9768,-2.2633 -10.89153,-2.34623 l -0.002,-0.002 c -1.08162,-0.0261 -1.62542,0.34521 -2.03064,1.00475 -0.40521,0.65957 -0.58952,1.68937 -0.50929,2.81258 0.0802,1.12321 0.41529,2.32663 0.91177,3.30592 0.49646,0.97929 1.15951,1.71136 1.76855,1.99982 0.10489,0.0495 -1.61258,-0.29893 -1.53865,-0.20953 3.06246,3.35444 0.86913,9.75998 -2.49777,10.32673 -2.95701,0.49777 -6.42167,-0.37547 -8.32921,-1.5432 -0.85482,0.49484 -1.95027,-0.6928 -1.96512,-0.70609 -1.0388,-0.91649 -1.22879,-0.65053 -1.79688,-0.58209 -0.5681,0.0684 -1.02008,0.41844 -1.36026,1.03963 -0.68032,1.24236 -0.6231,3.45244 0.71682,4.92752 0.0497,0.0546 0.0916,0.11593 0.12427,0.18217 0.79152,1.60335 0.57491,3.29688 0.53458,4.76398 -0.0403,1.4671 0.0318,2.63887 0.98473,3.63608 0.0168,0.0176 0.0325,0.0361 0.0476,0.0553 2.31378,2.91428 6.90403,3.40102 10.74515,4.3785 3.16243,-0.0232 5.40634,1.55917 7.23342,3.3794 1.83983,1.83294 3.39075,3.86584 5.28521,5.04637 0.8262,0.22483 1.82087,0.33381 2.84892,0.27116 z"
           sodipodi:nodetypes="csccssccscccscsccscccccscsccscccsccscccsccc" />
        <path
           style="font-variation-settings:normal;vector-effect:none;fill:#81c198;fill-opacity:1;stroke:none;stroke-width:3.32582;stroke-linecap:round;stroke-linejoin:round;stroke-miterlimit:4;stroke-dasharray:none;stroke-dashoffset:0;stroke-opacity:1;paint-order:markers fill stroke;stop-color:#000000"
           d="m 815.28397,224.73332 c 1.63904,1.16534 3.41287,2.14095 5.27476,2.90113 0.80286,0.32779 1.62193,0.61564 2.45226,0.86579 1.68258,0.50691 3.4073,0.85804 5.11637,1.26684 1.02306,0.24471 2.04558,0.51173 3.01387,0.92276 0.96829,0.41102 1.88598,0.97288 2.60364,1.74197 0.6018,0.64492 1.04734,1.41654 1.49615,2.17591 0.42405,0.71748 0.8646,1.4414 1.48135,2.00196 0.56097,0.50987 1.25092,0.86592 1.97474,1.09117 0.72382,0.22525 1.48229,0.32339 2.23962,0.35661 1.11736,0.049 2.24423,-0.0424 3.32808,-0.3184 0.90592,-0.23068 1.78526,-0.59337 2.54694,-1.13536 0.76168,-0.54198 1.40269,-1.26937 1.7744,-2.12712 0.35173,-0.81163 0.45395,-1.72404 0.32752,-2.59953 -0.0731,-0.50633 -0.22011,-0.99894 -0.31616,-1.50142 -0.0961,-0.50249 -0.13997,-1.02741 -0.007,-1.52148 0.1415,-0.52683 0.47259,-0.9804 0.81608,-1.40418 0.33359,-0.41156 0.68603,-0.80886 1.07264,-1.17107 0.72565,-0.67984 1.56957,-1.23207 2.47969,-1.63262 0.78776,-0.34669 1.62059,-0.57924 2.4221,-0.89284 0.65462,-0.25612 1.28692,-0.56575 1.91284,-0.88567 0.85059,-0.43475 1.69276,-0.89027 2.48373,-1.42588 0.80954,-0.54818 1.56083,-1.17707 2.34463,-1.76146 0.34915,-0.26032 0.70595,-0.51279 1.02329,-0.81106 0.31734,-0.29827 0.59664,-0.64716 0.75599,-1.05247 0.19117,-0.48625 0.19959,-1.02288 0.18985,-1.54527 -0.01,-0.52239 -0.0342,-1.05345 0.0977,-1.55902 0.17982,-0.68956 0.63295,-1.27012 1.07442,-1.82952 0.44147,-0.55941 0.89345,-1.14126 1.07024,-1.8316 0.12326,-0.48131 0.10402,-0.99154 -0.001,-1.47715 -0.10506,-0.48561 -0.2936,-0.94938 -0.50676,-1.39818 -0.42632,-0.89758 -0.9604,-1.76265 -1.16152,-2.73577 -0.22624,-1.09469 -0.0112,-2.22499 0.0474,-3.34127 0.0879,-1.67565 -0.2059,-3.42362 -1.15567,-4.8069 -0.78353,-1.14115 -1.95037,-1.95454 -3.11443,-2.7036 -2.35118,-1.51296 -4.86081,-2.89326 -7.61319,-3.38469 -0.97199,-0.17355 -1.99304,-0.23 -2.92984,0.0819 -1.18697,0.39522 -2.10002,1.32639 -3.06951,2.11707 -0.61094,0.49826 -1.26514,0.9528 -1.98821,1.26694 -0.72307,0.31414 -1.52067,0.48362 -2.30442,0.39847 -0.61417,-0.0667 -1.2016,-0.28615 -1.76417,-0.54142 -0.56258,-0.25526 -1.10839,-0.54836 -1.68297,-0.77533 -1.07213,-0.42351 -2.22084,-0.60807 -3.35778,-0.79828 -1.63444,-0.27344 -3.27511,-0.56518 -4.93223,-0.57614 -0.59127,-0.004 -1.19146,0.0296 -1.75224,0.2171 -0.56077,0.18746 -1.08369,0.54474 -1.36865,1.06283 -0.15438,0.28068 -0.23414,0.59858 -0.25876,0.91797 -0.0246,0.31938 0.005,0.64099 0.0581,0.95682 0.10706,0.63167 0.31133,1.24575 0.38432,1.88225 0.0622,0.54233 0.0279,1.09035 0.0244,1.63622 -0.003,0.54587 0.0257,1.10133 0.20804,1.61585 0.18021,0.50847 0.50369,0.95627 0.87741,1.34529 0.37373,0.38903 0.79879,0.72439 1.21851,1.06329 0.41971,0.3389 0.83758,0.68464 1.19295,1.0905 0.35537,0.40587 0.64832,0.87744 0.78087,1.40036 0.13911,0.54879 0.096,1.12967 -0.023,1.68319 -0.11893,0.55351 -0.31155,1.08798 -0.47324,1.63055 -0.23703,0.79536 -0.40867,1.6118 -0.70772,2.38598 -0.29905,0.77418 -0.74181,1.51903 -1.41049,2.01062 -0.74422,0.54712 -1.70636,0.7312 -2.62902,0.68751 -0.92266,-0.0437 -1.82099,-0.29725 -2.70827,-0.55402 -0.96483,-0.27922 -1.92925,-0.56459 -2.86656,-0.92557 -1.15762,-0.44582 -2.28248,-1.01387 -3.22533,-1.82001 -0.55405,-0.47371 -1.04179,-1.02644 -1.63546,-1.44944 -0.54803,-0.39047 -1.19442,-0.6659 -1.86694,-0.68857 -0.33626,-0.0113 -0.67586,0.0412 -0.98836,0.16583 -0.3125,0.12467 -0.59723,0.32243 -0.81333,0.58031 -0.27969,0.33376 -0.43696,0.75793 -0.50075,1.18869 -0.0638,0.43075 -0.0387,0.87006 0.0144,1.30226 0.0987,0.80292 0.29426,1.59542 0.60232,2.34343 0.29529,0.71698 0.69125,1.38816 1.00794,2.09595 0.31669,0.70779 0.55615,1.47236 0.50974,2.24638 -0.0358,0.59756 -0.23958,1.17016 -0.37773,1.75263 -0.0691,0.29124 -0.12211,0.58771 -0.12901,0.88695 -0.007,0.29923 0.0335,0.60226 0.14575,0.87973 0.14416,0.35637 0.39867,0.65467 0.63967,0.95419 0.24099,0.29951 0.47776,0.6174 0.57535,0.98924 0.0705,0.26857 0.0635,0.55701 -0.02,0.82185 z"
           id="path3135"
           inkscape:path-effect="#path-effect3137;#path-effect3139"
           inkscape:original-d="m 815.28397,224.73332 c 1.58991,0.89619 3.01439,2.255 4.77298,2.81194 0.45051,0.14268 0.88838,0.0482 1.31911,0.26128 1.01082,0.5002 -0.17823,0.18973 0.76204,0.46859 1.14864,0.34069 2.37143,0.49426 3.50872,0.76003 1.08206,0.25287 2.1835,0.6907 3.33561,0.95994 1.13981,0.26637 4.42734,1.91653 5.14173,2.79962 0.35159,0.43463 0.82125,1.02826 1.03965,1.52802 0.26641,0.60965 -0.27731,0.12021 0.24403,0.69615 0.31555,0.3486 0.67862,0.63976 0.99333,0.98906 0.12757,0.14159 0.0823,0.40162 0.22815,0.52426 1.99737,1.67917 3.197,1.65847 5.87803,1.41063 0.48907,-0.0452 1.14662,0.0119 1.60342,-0.14823 1.62139,-0.56836 3.96273,-1.91548 4.53405,-3.46246 0.0892,-0.24153 0.4038,-0.52361 0.45999,-0.76403 0.12785,-0.54709 -0.12017,-1.70747 -0.37552,-2.11864 -0.1391,-0.22393 -0.32066,-2.1157 -0.21958,-2.37518 0.11738,-0.30134 0.19001,-0.56035 0.27449,-0.91045 0.0179,-0.0745 0.0973,-0.52669 0.12718,-0.54517 0.10047,-0.0621 0.24479,0.0151 0.35284,-0.0326 0.33562,-0.14825 -0.0107,-0.4622 0.12899,-0.54817 0.099,-0.061 0.24109,0.0152 0.34727,-0.0321 0.35168,-0.15666 1.00828,-1.2463 1.82798,-1.60642 0.54223,-0.23821 1.1404,-0.7059 1.71568,-0.87732 0.39537,-0.11781 0.85413,-0.12804 1.23064,-0.29343 0.17221,-0.0757 0.3294,-0.32971 0.50152,-0.40572 0.10805,-0.0478 0.25274,0.0301 0.35284,-0.0327 0.0505,-0.0317 -0.0671,-0.14668 -0.0164,-0.17815 0.10132,-0.063 0.24376,0.006 0.35631,-0.033 0.57952,-0.20315 1.3811,-0.57199 1.90542,-0.89767 0.18475,-0.11476 0.30915,-0.3216 0.50823,-0.40915 0.16379,-0.072 0.37068,0.0226 0.53448,-0.0494 0.79256,-0.34819 1.46093,-1.18623 2.20067,-1.64439 0.16033,-0.0993 0.36589,-0.11605 0.51799,-0.22756 0.60725,-0.44517 1.09974,-1.09013 1.65645,-1.59406 0.20147,-0.18238 0.7591,-0.30279 0.83316,-0.60695 0.2071,-0.8504 -0.57348,-2.03083 -0.0823,-2.83356 0.78007,-1.27476 2.19548,-2.63666 2.52189,-4.03097 0.27072,-1.15642 -1.44241,-3.81964 -1.59365,-5.45572 -0.062,-0.67086 -0.26808,-1.47082 -0.19764,-2.13788 0.18951,-1.79447 0.72048,-4.00484 -0.35033,-5.72576 -0.15977,-0.25679 -0.43407,-0.42611 -0.60764,-0.67378 -1.34849,-1.9242 -2.03833,-1.92176 -3.91372,-3.23531 -2.6143,-1.83106 -5.30703,-3.1507 -8.61179,-2.8452 -0.25991,0.024 -0.99556,-0.0142 -1.2471,0.11528 -0.88938,0.45781 -1.4447,1.4066 -2.36493,1.84908 -0.50964,0.24505 -1.06793,0.35066 -1.59065,0.5064 -1.13437,0.33798 -2.1424,1.0435 -3.29141,1.38586 -1.66612,0.49641 -3.99546,-2.3476 -5.92709,-2.16903 -0.78582,0.0726 -1.55304,0.0766 -2.3325,0.036 -1.89505,-0.0989 -3.96513,-1.13756 -5.81316,-0.19255 -1.33413,0.68221 -0.85135,2.48295 -0.74182,3.66778 0.0421,0.45611 0.40869,2.4761 0.26345,2.84981 -0.11697,0.30096 -0.26699,0.71417 -0.079,1.08186 0.90691,1.77356 3.42728,2.78193 4.13196,4.77608 0.46034,1.30272 -0.13972,1.64935 -0.27322,2.91348 -0.17669,1.67321 -0.48018,4.35696 -2.2153,5.24422 -2.03407,1.04013 -3.6566,0.7907 -5.71905,-0.01 -0.85111,-0.33027 -0.26433,-0.2524 -0.94051,-0.45559 -0.78593,-0.2362 -1.7065,-0.22405 -2.4049,-0.6789 -0.60664,-0.39507 -1.15785,-0.89078 -1.76341,-1.28635 -0.22775,-0.14877 -0.58866,-0.0847 -0.76075,-0.29534 -0.0754,-0.0924 0.015,-0.24712 -0.033,-0.35632 -0.26127,-0.59474 -1.07348,-0.8324 -1.67795,-1.06825 -0.72146,-0.28147 -3.8289,-0.29171 -4.06975,0.73348 -0.0829,0.35269 0.0814,0.88023 0.11509,1.24501 0.0609,0.65923 0.008,1.49886 0.19764,2.13788 0.0919,0.31 0.35738,0.55203 0.43931,0.8648 0.0611,0.23325 0.0108,0.48569 0.0666,0.72028 0.26036,1.09558 1.05234,2.05299 1.376,3.13932 0.40589,1.36224 -0.98257,2.07254 -0.5919,3.38368 0.021,0.0705 1.27851,2.53074 1.28371,2.53582 0.0674,0.0659 0.26505,-0.0269 0.27497,0.0665 0.0272,0.25958 -0.0385,0.52059 -0.0576,0.78089 z" />
        <path
           id="path3141"
           style="font-variation-settings:normal;vector-effect:none;fill:#61b17e;fill-opacity:1;stroke:none;stroke-width:3.32582;stroke-linecap:round;stroke-linejoin:round;stroke-miterlimit:4;stroke-dasharray:none;stroke-dashoffset:0;stroke-opacity:1;paint-order:markers fill stroke;stop-color:#000000"
           d="m 842.93866,235.59807 c 6.00647,-0.53261 1.27922,-7.29111 4.76599,-10.01015 3.52015,-3.87667 9.44066,-4.09295 12.96809,-7.89804 1.41578,-4.19703 4.45114,-7.33571 1.60199,-11.68613 0.006,-3.42202 0.9088,-7.77593 -3.08981,-9.59565 -3.12189,-1.65047 -7.3617,-4.66528 -10.55061,-1.44838 -4.08481,3.32245 -8.84438,2.29443 -13.12193,0.24499 -2.85225,-0.11217 -6.7561,-1.35814 -5.42878,2.96654 1.11762,3.51442 6.07642,5.6013 4.1401,10.01389 -0.22346,3.83839 -2.47012,8.26603 -6.89864,8.09092 -4.67238,0.14252 -8.54723,-2.68112 -12.43081,-4.76453 0.39289,3.58724 2.56833,6.74909 1.65583,10.47269 2.18397,3.8801 7.36347,4.52785 11.37267,5.26079 3.91292,0.56813 7.41488,2.83547 9.519,6.21095 1.1945,2.0149 3.20756,2.8114 5.49691,2.14211 z" />
        <path
           id="path3143"
           style="font-variation-settings:normal;vector-effect:none;fill:#52a671;fill-opacity:1;stroke:none;stroke-width:3.32582;stroke-linecap:round;stroke-linejoin:round;stroke-miterlimit:4;stroke-dasharray:none;stroke-dashoffset:0;stroke-opacity:1;paint-order:markers fill stroke;stop-color:#000000"
           d="m 842.21648,232.17648 c 0.52975,-4.13324 0.86657,-8.82201 5.13492,-10.93878 3.77126,-3.04635 10.22795,-3.08098 11.49945,-8.59462 1.04469,-4.03354 0.24024,-8.22179 -0.66283,-12.12566 -2.33057,-3.56494 -7.24159,-4.08172 -10.33135,-1.12945 -3.71463,2.379 -8.1746,1.68385 -11.88325,-0.32283 -0.98502,1.28407 3.92459,5.62483 1.89401,8.77631 -0.28407,5.49309 -3.67544,11.74606 -9.78776,11.94585 -2.6142,0.40122 -10.4916,-3.02825 -6.74066,1.85824 4.88049,2.40611 10.92368,1.97811 15.27754,5.64967 2.47462,0.87762 2.83986,5.33122 5.59993,4.88127 z" />
      </g>
      <g
         id="g3127"
         transform="translate(3.6545534,-57.251116)">
        <path
           transform="matrix(0.67334834,-0.06224657,0.06224657,0.67334834,328.02448,131.20116)"
           d="m 951.82617,155.14258 c -8.64449,-0.6699 -13.81483,4.33907 -16.25781,5.9082 -0.75426,0.48446 -0.65239,0.41369 -0.81641,0.49219 a 9.7067182,9.7067182 0 0 0 -3.56836,-1.10742 c -8.30998,-0.89064 -15.88763,2.83506 -20.46679,8.89453 -4.09378,5.41717 -5.52481,13.6132 -2.48438,20.75195 -0.28799,0.38442 -0.62244,0.87728 -1.79101,2.14063 -1.52498,1.64865 -3.71415,3.83892 -5.58789,7.24414 -1.87375,3.40521 -3.10382,8.38857 -2.18555,13.32031 l -0.13672,-1.04102 c 0.52153,6.85479 -2.37178,20.2618 7.05078,31.72657 a 9.7067182,9.7067182 0 0 0 1.39063,1.38086 c 6.03917,4.88972 12.8378,5.6859 17.76172,6.14648 4.92391,0.46058 8.41405,0.81978 10.18945,1.63086 a 9.7067182,9.7067182 0 0 0 3.53711,0.86523 c 0.11243,0.13317 0.57988,0.67647 1.33203,2.07618 1.64186,3.05543 3.88291,9.82931 11.53515,13.80078 4.05369,2.22985 9.00752,2.8583 12.79297,2.05273 3.87197,-0.82397 6.46983,-2.47861 8.32422,-3.58594 1.62808,-0.97218 2.44328,-1.3739 2.78321,-1.52929 a 9.7067182,9.7067182 0 0 0 5.06054,0.43945 c 0.48059,0.34786 0.99883,0.72139 2.45313,1.80664 1.9518,1.45651 4.85267,3.68178 9.54492,4.28906 4.50075,0.5825 9.60469,-1.35809 13.23829,-4.42382 4.4323,-3.39067 7.0863,-8.81751 7.2558,-13.73438 0.1739,-5.04248 -1.5647,-9.42951 -4.1855,-13.00195 -1.6817,-2.29234 -3.8363,-4.27652 -6.4043,-5.80469 2.4819,-3.49313 4.1051,-9.52458 2.4648,-14.66602 -3.3724,-12.49152 -13.80025,-17.53364 -17.50776,-21.18945 a 9.7067182,9.7067182 0 0 0 -2.85156,-1.94727 c -0.0688,-0.85535 -0.0571,-1.59671 -0.27149,-2.62304 -0.41808,-2.00157 -1.59922,-4.4165 -3.30859,-6.58203 -0.0464,-1.69351 0.0317,-3.43187 -0.39453,-7.17774 -0.50481,-4.43616 -2.97988,-10.46014 -7.86329,-14.76953 -4.77346,-5.60835 -11.47163,-10.36413 -19.86523,-11.69336 a 9.7067182,9.7067182 0 0 0 -0.76758,-0.0898 z m 32.57031,47.71875 c 0.31332,0.86787 -0.0299,0.9805 -0.006,0.16015 0.001,-0.0367 0.004,-0.12158 0.006,-0.16015 z"
           inkscape:original="M 951.07617 164.81836 C 943.22897 164.21025 938.53368 175.40036 930.14844 170.08594 C 920.73562 169.0771 912.51476 178.86162 917.77539 187.55273 C 921.307 197.05201 906.20765 200.26118 908.20898 211.00977 C 908.87253 219.73128 907.12028 230.05905 913.08008 237.31055 C 920.28339 243.14284 930.74131 240.04941 938.95703 243.80273 C 949.09207 244.1248 948.21044 256.94225 955.875 260.82812 C 965.07403 266.11314 970.02509 253.23101 978.57422 257.19922 C 986.22136 253.76568 990.54098 268.95869 999.51367 260.85547 C 1009.2017 253.82517 997.14162 237.5214 987.62305 244.51172 C 977.21011 235.21542 998.99543 234.67368 995.42383 224.10742 C 993.5461 216.49833 985.62939 212.15712 980.33398 206.93555 C 969.41542 210.2444 979.1939 196.98305 971.34375 193.27539 C 969.97666 186.6572 973.01588 178.61118 965.11133 173.25977 C 961.52113 169.02515 956.63749 165.69906 951.07617 164.81836 z "
           inkscape:radius="9.7057476"
           sodipodi:type="inkscape:offset"
           style="fill:#edf7f7;fill-opacity:1;stroke:none;stroke-width:0.391268px;stroke-linecap:butt;stroke-linejoin:miter;stroke-opacity:1"
           id="path2325" />
        <path
           transform="matrix(0.67334834,-0.06224657,0.06224657,0.67334834,328.02448,131.20116)"
           d="m 951.13281,163.28906 c -6.23835,-0.23297 -10.28034,3.51029 -13.0039,6.89453 -3.59054,-1.53329 -7.3136,-1.81149 -10.90039,-1.31054 -3.59449,0.50202 -7.24807,1.68832 -10.11329,4.98047 -2.52618,2.90259 -3.05382,7.85207 -1.54687,11.86718 0.30895,2.29184 1.00273,3.9639 1.66211,5.48633 0.21168,0.48874 0.29766,0.7304 0.49805,1.1875 -6.24829,2.94106 -9.00564,8.95076 -10.39258,14.82813 -1.24704,5.28448 -1.29872,10.85114 0.37304,16.03125 -0.83083,6.37565 0.94393,12.54631 5.44141,16.07812 4.30075,3.37733 9.78733,3.98806 15.22461,2.98242 4.20357,1.86644 8.24295,2.59724 11.39062,3.47266 3.3069,0.9197 5.17121,1.87919 6.48438,3.35156 1.11954,4.59499 3.2756,8.97349 7.5625,12.0586 2.47624,1.78204 6.13571,2.93873 9.72461,2.14062 3.26601,-0.7263 5.90795,-2.84456 8.12695,-5.52539 0.48848,0.10848 1.11471,0.25096 2.59375,0.61914 1.91995,0.47794 4.97554,1.38458 8.67578,-0.4668 0.1268,-0.0634 0.20978,-0.17361 0.33203,-0.24218 0.039,0.0818 0.0614,0.17508 0.10157,0.25586 1.51281,3.04378 4.29886,6.10995 8.87304,6.60937 4.57419,0.49942 8.92497,-2.59689 11.38277,-6.63477 a 6.4375295,6.4375295 0 0 0 0.7481,-1.78906 c 0.9053,-3.62851 -0.4525,-7.06906 -1.9121,-9.14258 -1.4597,-2.07351 -3.07347,-3.36765 -4.3047,-4.31445 a 6.4375295,6.4375295 0 0 0 -3.44336,-1.31445 c -2.40434,-0.17991 -4.91162,0.37638 -7.0586,1.47851 -1.07301,-2.55453 -1.56366,-4.72385 -1.48632,-5.14062 0.0466,-0.251 -0.096,-0.0393 0.15625,-0.24609 0.25219,-0.20678 1.15837,-0.75752 3.15625,-1.12891 a 6.4375295,6.4375295 0 0 0 3.09765,-1.51563 c 3.07986,-2.73444 5.14918,-7.16529 4.46875,-11.0957 -0.68043,-3.93041 -2.89717,-6.28868 -4.82422,-8.1875 -1.92704,-1.89882 -3.90291,-3.41527 -5.4082,-4.72266 -1.50529,-1.30739 -2.41756,-2.50732 -2.38281,-2.4375 a 6.4375295,6.4375295 0 0 0 -8.1836,-3.0957 c 0.66751,-2.23103 0.76859,-4.5426 0.21485,-6.33984 -1.093,-3.54748 -2.98325,-5.57794 -4.25196,-7.27735 -0.87574,-1.17304 -0.96836,-1.41812 -1.17968,-1.77148 a 6.4375295,6.4375295 0 0 0 1.9414,-7.53125 c -1.71796,-4.10027 -4.46891,-8.06956 -7.9414,-11.51172 -3.4725,-3.44216 -7.65763,-6.45235 -12.91602,-7.46875 a 6.4375295,6.4375295 0 0 0 -0.98047,-0.11133 z"
           inkscape:original="M 950.89258 169.7207 C 944.58782 169.48525 939.1599 179.33547 939.88477 181.0918 C 938.38694 171.49603 916.04558 174.07912 921.76172 184.16016 C 921.87088 188.93577 931.34864 200.19062 920.49805 198.19531 C 913.67912 201.37314 911.0203 214.90283 914.20703 222.5918 C 911.74366 233.58561 919.45462 238.39401 929.21094 235.62109 C 936.5959 239.71528 946.94801 238.66951 952.08008 245.90625 C 953.44718 253.84092 960.30521 262.38125 967.24219 253.21289 C 971.23413 246.75254 981.01785 258.90707 982.50391 247.29297 C 978.57571 239.6515 977.39031 232.05587 988.30273 230.02734 C 996.56699 222.68994 981.6492 217.25876 978.66602 211.26367 C 977.90148 213.68694 965.52724 214.61955 968.51953 206.14844 C 976.67685 199.11588 956.94303 191.97127 967.0332 184.86914 C 964.41707 178.6252 957.60088 171.01735 950.89258 169.7207 z M 942.67773 173.39062 L 942.71094 173.51758 L 942.67773 173.39062 z M 994.23047 247.81055 C 982.32092 246.9194 991.24301 265.91155 998.125 254.60547 C 998.83118 251.77522 996.23863 249.3548 994.23047 247.81055 z "
           inkscape:radius="6.4368858"
           sodipodi:type="inkscape:offset"
           style="fill:#cbe7eb;fill-opacity:1;stroke:none;stroke-width:0.391268px;stroke-linecap:butt;stroke-linejoin:miter;stroke-opacity:1"
           id="path2318" />
        <path
           id="path1549"
           style="fill:#e6d8a3;fill-opacity:1;stroke:none;stroke-width:0.264583px;stroke-linecap:butt;stroke-linejoin:miter;stroke-opacity:1"
           d="m 994.42188,204.89049 c -2.86689,-0.75663 -2.10284,-2.81786 -3.23528,-3.75536 -1.03397,-0.70546 -2.08587,-2.5476 -0.20231,-3.69614 -1.19523,-0.92788 -2.10969,-1.11549 -1.9655,-2.89726 -26.88261,1.27983 1.09637,29.59908 5.40309,10.34876 z"
           sodipodi:nodetypes="ccccc" />
        <path
           sodipodi:nodetypes="cccccc"
           d="m 999.98403,212.18165 c -0.90207,-0.26836 -1.55314,0.0917 -1.21604,0.59632 -1.24804,0.55456 -2.57566,0.89412 -3.56959,0.14342 -2.06376,-1.41882 -2.55263,-4.04348 0.073,-4.99075 -1.19523,-0.92789 -2.1097,-1.11549 -1.9655,-2.89726 -26.88261,1.27983 2.37147,26.39859 6.67813,7.14827 z"
           style="fill:#e6d8a3;fill-opacity:1;stroke:none;stroke-width:0.264583px;stroke-linecap:butt;stroke-linejoin:miter;stroke-opacity:1"
           id="path1543" />
        <path
           sodipodi:nodetypes="ccccccccccccccccccccccccccccccccccccccccccccccccc"
           d="m 978.87083,186.29234 c -2.04117,1.023 -3.32283,2.69294 -5.35082,2.49814 -1.37577,1.52256 -0.36067,3.07605 -1.10076,4.89049 1.79716,0.71113 0.0828,4.62755 -0.0898,1.77296 -1.31999,-1.19655 -0.60975,-4.30459 -3.56428,-3.96105 -2.87503,-0.94298 -5.45247,1.0492 -8.20932,1.0212 -1.58725,0.90283 -2.67165,1.82583 -1.12564,3.07174 -1.61669,2.1064 1.54816,2.43696 2.3727,3.29431 -1.13502,1.15047 -2.31332,2.65096 -0.13027,3.13427 0.49895,1.94866 1.98921,2.92015 3.4301,3.93865 -0.66641,2.44291 -3.92333,1.72129 -5.77298,0.44697 -2.1057,0.54342 1.08687,3.52631 -1.51404,4.39897 -2.53953,1.29853 -1.67968,4.34364 -1.47382,6.61156 1.13212,1.51399 -0.9689,2.45229 0.0697,3.61292 -2.59818,1.92793 3.24553,1.97212 1.27199,4.34385 0.0256,1.93989 0.11113,4.57684 1.17543,6.46992 2.24144,1.37718 6.18778,1.2836 8.23588,0.18627 0.87889,-1.65005 4.49852,0.5511 6.61684,1.54339 2.07198,1.08913 4.54038,0.96662 6.47481,0.7688 1.01651,2.07791 4.3595,0.7611 5.03933,3.69747 0.0732,2.59765 1.54797,5.80968 4.19711,6.82268 2.21571,0.89388 2.90136,-2.05238 5.2257,-1.2359 0.51033,-1.79462 1.19195,-6.77847 3.8737,-4.50315 1.33964,3.17238 5.64111,1.47096 6.48201,-0.78004 0.7261,-1.34013 -0.5355,-4.15724 -1.8573,-5.69919 -1.4806,-1.6011 -2.5603,-3.70034 0.01,-4.76319 -0.4424,-2.39199 2.7157,-1.53041 4.0893,-3.02406 4.0232,-0.93647 2.3188,-5.72322 -0.6602,-6.96078 -2.5705,-1.28438 -4.476,-3.59955 -6.60037,-5.70788 -0.4667,-2.42284 -1.91001,0.403 -1.08834,1.17132 -1.36624,1.19008 -3.17155,1.7756 -4.78328,0.16956 -2.31862,-0.67265 -1.37199,-5.75393 1.1589,-5.59189 -1.19523,-0.92789 0.26392,-3.87289 -1.9655,-2.89726 -2.12091,-0.66126 -2.39105,-3.27941 -4.18051,-4.46961 -0.63055,-1.76048 -0.0872,-3.82259 1.98013,-3.32683 1.293,-2.34664 -1.00395,-3.68141 -2.45452,-4.53937 -1.98694,-0.92696 -2.87261,-3.48742 -4.82498,-4.61732 -0.64843,-2.39691 -2.60869,-1.42672 -4.00022,-1.27944 l -0.5168,-0.32435 -0.43853,-0.18409 z m -5.30345,2.98262 0.0305,0.0836 z m 39.34572,46.90139 c -2.611,0.13329 -4.2022,2.39346 -4.5322,4.47829 8e-4,2.20377 5.9783,3.54777 6.7465,0.35645 2.4892,-0.79336 1.0579,-2.90044 -0.7298,-3.0547 -0.5434,-0.79134 -0.2451,-1.94557 -1.4845,-1.78004 z"
           style="fill:#81c198;fill-opacity:1;stroke:none;stroke-width:0.264583px;stroke-linecap:butt;stroke-linejoin:miter;stroke-opacity:1"
           id="path1516" />
        <path
           sodipodi:nodetypes="sccssccccsssscscccccsccssccssccsccsccscscccsccccscccsccccccccsccsccscccccccsscscssccscccscsccccscccscccccccccscsccsccccccccssccsccscsscscscccsccccsccccccccccccccccccccccsccsscccscsccsscccc"
           d="m 978.23969,189.0341 c -7.8e-4,0.005 -0.005,0.0113 -0.006,0.0164 l 0.49234,0.27548 c -0.38767,-0.14899 -0.32268,-0.17768 -0.48591,-0.29198 z m 0.89679,0.3747 c -0.36103,0.25262 -0.86498,0.44647 -1.40212,0.71586 -2.04571,1.31901 -1.66696,1.15958 -2.29461,2.92721 -0.0277,0.0736 -0.0587,0.1459 -0.0927,0.21681 0.48218,0.93829 0.97497,2.24599 0.49268,3.79431 -0.13241,0.42518 -0.36613,0.81185 -0.68106,1.1267 -0.41756,0.41745 -0.92543,0.90066 -1.96631,1.08371 -1.04087,0.18304 -2.49161,-0.49783 -3.02077,-1.24078 -0.38495,-0.54043 -0.44277,-0.92312 -0.53197,-1.32096 -0.15314,-0.18509 -0.35559,-0.33822 -0.46024,-0.54504 -0.40702,-0.80438 -0.41705,-1.4418 -0.41179,-1.87191 -0.15759,-0.006 -0.32381,-0.069 -1.16685,-0.1826 -0.007,-0.002 -0.0143,-0.002 -0.0215,-0.004 -0.61121,-0.0873 -2.05543,0.036 -2.35216,0.15247 -0.16918,0.0666 -0.34454,0.11601 -0.52351,0.14787 -0.0183,0.003 -0.34446,0.14054 -1.05076,0.42741 -0.38155,0.15495 -0.93964,0.31173 -1.57503,0.39495 0.005,0.13209 0.0102,0.25574 0.002,0.39113 0.45845,0.12386 0.92643,0.33811 1.35802,0.71538 0.83304,0.7282 1.16833,1.91402 1.10773,2.74267 -0.0482,0.65965 -0.27868,1.12456 -0.52541,1.57655 0.5726,0.81587 0.83079,1.52609 0.92604,1.83896 0.1875,0.0425 0.38337,0.0489 1.04501,0.42864 0.445,0.2554 1.0298,0.7059 1.42773,1.42651 0.39795,0.72059 0.50431,1.60693 0.41021,2.31373 -0.0857,0.64303 -0.39601,1.23502 -0.8761,1.67131 -0.0902,0.16356 -0.11811,0.28047 -0.33129,0.50547 -0.0803,0.0847 -0.22906,0.10434 -0.33057,0.18309 -0.005,0.006 -0.01,0.0193 -0.0149,0.0253 -0.7564,0.86684 -1.25985,0.91293 -1.68083,1.04404 -0.48786,0.15196 -0.91005,0.11834 -1.33099,0.15089 -0.56272,0.16618 -1.18722,0.18416 -1.798,0.10651 -0.19769,0.58622 -0.46653,1.14894 -0.87842,1.63173 -0.0443,0.052 -0.0905,0.10224 -0.13859,0.15075 -0.66554,0.67152 -1.24304,1.0599 -1.5306,1.30606 -0.0784,0.0671 -0.0241,0.0158 -0.0603,0.0507 -0.0411,1.43547 0.0885,2.95091 0.36834,4.5154 l -0.57023,-1.24713 c 0.61585,0.75997 1.05598,2.31094 0.65018,3.41765 -0.0575,0.15679 -0.12969,0.20367 -0.19344,0.33223 0.0262,0.16352 0.007,0.38446 -0.007,0.60015 0.14577,0.10087 0.27101,0.14338 0.42708,0.28682 l 0.009,0.007 c 0.66679,0.61768 1.19759,1.68901 1.23474,2.59563 0.0246,0.60254 -0.1158,0.85563 -0.22384,1.17995 0.16019,0.58868 0.12009,1.21393 -0.11425,1.77728 0.08,0.16739 0.14284,0.34245 0.18758,0.5225 0.004,0.0194 0.19403,0.36058 0.33378,1.2146 0.0445,0.27189 -0.0537,0.68967 -0.11435,1.073 0.21579,0.0226 0.42815,0.0707 0.63265,0.14313 0.3226,0.11456 0.70874,0.16269 1.46716,0.14555 l -0.52222,0.0615 c 1.18982,-0.25863 1.96925,-0.16246 2.64183,-0.18987 0.0863,-0.003 0.0821,-0.006 0.15671,-0.0121 0.0103,-0.006 0.0345,-0.0309 0.0443,-0.0372 0.0999,-0.0643 0.0802,-0.0364 0.15198,-0.0777 0.0598,-0.0563 0.12424,-0.1801 0.17867,-0.21946 0.0995,-0.072 0.11777,-0.0468 0.20193,-0.0969 0.17409,-0.16753 0.3695,-0.31135 0.5812,-0.42778 1.51819,-0.83671 3.38356,-0.42957 4.30147,0.0149 0.91791,0.44444 1.44586,0.81753 1.69506,0.91767 l -0.54239,-0.15679 c 1.55623,0.27699 2.53354,0.97488 3.1579,1.30371 0.62437,0.32882 0.69773,0.30742 0.74529,0.29983 0.58832,-0.0935 1.19108,0.007 1.71752,0.28557 0.0468,0.01 0.0491,-0.006 0.0962,0.007 0.13041,0.0358 0.17897,0.11488 0.29488,0.16241 0.0961,-0.0381 0.15359,-0.0589 0.45374,-0.1852 l -0.37416,0.22825 c 0.0155,0.007 0.0254,0.0157 0.0406,0.0228 0.33404,-0.24066 0.66734,-0.50412 1.25939,-0.60983 0.76746,-0.13702 1.71146,0.10578 2.25804,0.46506 0.58974,0.38767 0.86927,0.7182 1.03905,0.99555 0.2707,0.0463 0.58582,0.08 0.78487,0.13967 0.65871,0.19729 1.2083,0.41123 1.13714,0.39226 0.71346,0.1902 1.32041,0.65942 1.68416,1.30199 0.0304,0.0536 0.48333,0.53532 1.08605,1.38912 0.48206,0.68286 1.00267,1.97005 0.90617,3.31705 0.28199,0.2915 0.70565,0.76858 0.95049,1.73059 0.13394,0.22854 0.35202,0.54733 0.42719,0.67542 0.15117,0.2576 0.22967,0.20959 -0.13683,-0.0311 0.18799,0.12362 0.36009,0.26986 0.51244,0.43543 -0.12813,-0.13911 0.031,-0.0995 0.28453,-0.0356 0.21858,-0.2034 0.43697,-0.50811 0.62504,-0.61354 0.72083,-0.4041 1.14514,-0.42549 1.49837,-0.47807 0.1041,-0.0159 0.14167,-0.0162 0.23096,-0.0269 0.008,-7.8e-4 0.0132,-7.8e-4 0.021,-0.002 0.0179,-0.0922 7.9e-4,-0.067 0.0252,-0.1721 0.16664,-1.16342 0.67631,-2.84201 1.97931,-3.99895 0.0937,-0.0831 0.19301,-0.15957 0.29716,-0.22908 0.6046,-0.40433 1.27144,-0.72003 2.18282,-0.85038 0.91144,-0.13036 2.30608,0.0272 3.32622,1.02949 0.3582,0.35155 0.6134,0.79446 0.7378,1.28072 0.091,0.008 0.3291,5.7e-4 0.6661,-0.0687 -0.1161,0.1615 -0.044,-0.0503 0.3304,-0.61547 0.053,-0.0796 0.2182,-0.18934 0.2897,-0.28144 0.023,-0.0567 0.044,-0.11383 0.067,-0.16273 -0.067,-0.18982 -0.071,-0.008 -0.1367,-0.36006 l 0.1399,0.35182 c 0,-0.003 0,-0.009 0.01,-0.0125 -0.1295,-0.35705 -0.3325,-0.79946 -0.3617,-0.94277 0,-0.004 0,-0.008 -0.01,-0.0112 -0.8334,-1.36453 -2.15227,-2.81545 -3.20631,-4.95602 -0.1532,-0.31132 -0.2461,-0.64883 -0.2737,-0.99468 -0.095,-1.19003 0.45837,-2.0927 0.88244,-2.5924 0.4185,-0.49314 0.79717,-0.76128 1.11617,-0.98257 0.084,-0.36857 0.1262,-0.72116 0.3773,-1.15566 0.7509,-1.29991 2.6037,-2.01147 4.0119,-1.91213 l -0.549,0.0163 c -0.436,0.0569 -0.3268,0.11263 0.2422,-0.27839 0.3514,-0.24145 1.0533,-0.55803 1.8792,-0.76394 0.092,-0.063 0.2295,-0.2127 0.2936,-0.25263 0.024,-0.12007 0.01,-0.20317 0,-0.3054 -1.0371,-0.9265 -2.0079,-1.88428 -2.7046,-2.41201 -1.3178,-0.47586 -2.7933,-1.30108 -3.487,-2.98429 l 0.3315,0.58744 c -0.1909,-0.25792 -0.6448,-0.52668 -1.20657,-0.98537 -0.1425,0.0833 -0.2923,0.15346 -0.44747,0.20982 0.21657,-0.0789 0.17737,-0.0832 -0.2271,0.26902 -0.27957,0.24339 -0.71774,0.63727 -1.53131,0.883 -0.81344,0.24574 -1.96714,0.1131 -2.72276,-0.29874 -0.14783,-0.0806 -0.28796,-0.17468 -0.41857,-0.28095 0.0373,0.0302 -0.33036,-0.18581 -0.88071,-0.41598 -0.55034,-0.23019 -1.27376,-0.43738 -2.16849,-1.18958 -0.17351,-0.14567 -0.32835,-0.31223 -0.461,-0.49589 -0.96958,-1.34398 -0.88575,-2.97103 -0.74796,-3.78662 0.13779,-0.8156 0.15127,-1.15066 0.18333,-0.92949 -0.0754,-0.52005 -2e-4,-1.05084 0.21673,-1.52945 0.0419,-0.0926 0.0861,-0.29151 0.32596,-0.7928 0.0674,-0.14078 0.29595,-0.30391 0.40881,-0.47019 -0.93197,-0.51741 -1.68648,-1.2595 -2.02831,-1.86837 -0.45671,-0.8135 -0.57394,-1.18126 -0.64383,-1.36898 -0.85197,-0.62488 -1.57213,-1.38536 -1.9138,-2.20789 -0.47216,-1.13668 -0.54526,-2.19037 -0.54752,-3.13932 -0.0771,-1.15423 0.62156,-2.34219 1.50645,-3.10238 -0.0612,-0.0356 -0.2261,-0.20823 -0.31189,-0.26032 -0.17178,-0.0552 -0.38654,-0.0742 -0.52801,-0.14484 -0.71971,-0.35934 -1.13685,-0.79116 -1.44537,-1.14368 -0.12023,-0.1376 -0.22645,-0.28685 -0.31707,-0.44554 -0.16431,-0.28706 -0.62481,-0.92589 -1.05047,-1.57808 -0.93104,-0.68627 -1.78967,-1.51588 -2.58822,-2.45859 -0.15633,0.0582 -0.15583,0.11357 -0.35645,0.16161 -0.54518,0.13056 -1.26493,0.0219 -1.95437,-0.19336 z m -17.66535,9.261 c 0.0765,0.0294 0.17623,0.11688 0.26151,0.1602 -0.0403,-0.0237 -0.0932,-0.0901 -0.12918,-0.10611 z m -0.73671,0.15167 c -0.41402,0.15572 0.0969,0.041 0.20001,0.0544 -0.0438,-0.002 -0.16597,-0.0573 -0.20001,-0.0544 z m 2.98832,2.38181 c -0.002,0.003 -0.007,0.005 -0.01,0.009 0.007,0.0506 0.0133,0.10131 0.018,0.15219 -0.002,-0.0587 0.006,-0.0765 -0.008,-0.1611 z m -0.30057,0.26387 c -0.002,0.002 -0.006,0.005 -0.009,0.008 -0.002,0.01 0.0308,0.17467 0.0311,0.16426 7.5e-4,-0.009 -0.0251,-0.14587 -0.023,-0.17164 z m -1.19701,0.96882 c -0.029,0.0139 -0.0584,0.0272 -0.0878,0.04 0.0223,-0.014 0.0679,-0.0246 0.0878,-0.04 z m 4.78934,26.58475 c -0.10412,-0.002 -0.2379,-0.005 -0.46761,0.10686 0.0105,-0.003 0.0367,-0.0201 0.047,-0.0229 0.26591,-0.0749 0.31163,-0.0692 0.42066,-0.084 z m 10.77379,2.99509 -0.1958,0.12022 c 0.0486,-0.0409 0.16446,-0.0646 0.2183,-0.10638 -0.007,-0.005 -0.0155,-0.009 -0.0224,-0.0138 z m 0.33544,0.0273 c 0.27822,0.14966 0.61284,0.27863 0.798,0.43954 l -0.64754,-0.41896 c -0.0531,-0.0246 -0.0856,-0.007 -0.15046,-0.0206 z m 25.06367,3.43551 c -6e-4,6.7e-4 -4e-4,0.002 0,0.002 5e-4,-4.6e-4 0,-7.9e-4 0,-0.002 z"
           style="fill:#61b17e;fill-opacity:1;stroke:none;stroke-width:0.264583px;stroke-linecap:butt;stroke-linejoin:miter;stroke-opacity:1"
           id="path1529" />
        <path
           sodipodi:nodetypes="sccssccsccssssccscsscccscccsccccsccccscsccsccccccsccssccsccsscssssssccccsscccccscccssscsccsccccssssccsscccscsccccccccccccccccccccccsccss"
           d="m 982.64225,191.74939 c -0.0515,0.0314 -0.20748,0.0791 -0.30927,0.12675 l 0.0231,0.005 c 0.17592,-0.0655 0.44351,-0.22848 0.28617,-0.13257 z m -3.17372,0.40481 c -0.12741,0.0558 -0.32829,0.18006 -0.43503,0.22989 -0.7059,0.47536 -0.99343,0.74545 -0.8367,0.51902 0.0661,-0.0955 -0.099,0.31928 -0.11219,0.3791 0.44841,1.21593 0.80912,2.73435 0.24201,4.55494 -0.25783,0.82802 -0.71309,1.58121 -1.32644,2.19443 -0.45362,0.45349 -1.68829,1.51433 -3.35706,1.80779 -1.26644,0.22273 -2.27797,-0.0574 -3.18208,-0.44595 -0.90409,-0.38853 -1.71209,-0.86742 -2.41115,-1.84889 -0.42732,-0.59993 -0.63832,-1.18198 -0.7771,-1.64846 -0.13378,-0.1324 -0.1471,-0.0732 -0.37804,-0.50224 0.146,0.62314 0.29493,1.24926 0.24905,1.87635 -0.0336,0.46 -0.15365,0.84967 -0.27111,1.22807 0.20393,0.0879 0.21644,0.0534 0.41469,0.16726 0.73753,0.42328 1.71351,1.16201 2.41144,2.42584 0.73999,1.33998 0.8779,2.67342 0.71228,3.91725 -0.16681,1.25184 -0.77119,2.40676 -1.70579,3.25609 l 0.52834,-0.66957 c 0.0537,-0.0974 -0.27593,0.56913 -0.72101,1.03888 -0.26267,0.27722 -0.33756,0.25086 -0.51794,0.35161 l 0.19809,-0.18145 c 0.01,-0.0106 -1.4e-4,-0.004 0.009,-0.0141 -0.21943,0.24581 -0.47378,0.3525 -0.72296,0.54433 -1.0047,0.77349 -2.09048,1.24099 -2.10907,1.24679 -0.99936,0.31127 -1.75555,0.24944 -1.90573,0.26104 l 0.53732,-0.0987 c -0.34819,0.10283 -0.68072,0.1316 -1.01599,0.17219 -0.16226,0.25726 -0.20408,0.50959 -0.41663,0.75874 -0.0866,0.10154 -0.17587,0.19902 -0.26872,0.29276 l -0.002,0.002 c -0.3748,0.37816 -0.45065,0.39718 -0.75079,0.64505 0.0286,0.88617 0.0607,1.77681 0.22625,2.74855 0.039,0.14191 0.10185,0.27053 0.13407,0.41735 0.16501,0.75191 0.16673,1.60022 -0.005,2.49146 0.83634,1.01472 1.41651,2.15084 1.47675,3.6211 0.0279,0.68152 -0.11959,0.99074 -0.2338,1.38778 0.0573,0.4873 0.0605,0.96526 -0.016,1.44854 0.0274,0.0713 0.0529,0.12734 0.0821,0.21392 0.043,0.12792 0.0803,0.35108 0.12285,0.51123 0.32391,-0.0131 0.69927,-0.0765 0.90842,-0.0734 0.0483,-0.0281 0.081,-0.0406 0.13298,-0.068 l -0.0842,0.0648 c 0.003,5e-5 0.0113,-0.002 0.0145,-0.002 0.0389,-0.0322 0.082,-0.0583 0.1217,-0.0895 0.18335,-0.0936 0.38709,-0.21335 0.46728,-0.23949 0.12492,-0.0407 -0.17858,0.0721 -0.37914,0.17432 0.20172,-0.15154 0.38702,-0.3257 0.60855,-0.44754 2.62018,-1.44281 5.08932,-0.82375 6.69108,-0.0482 0.53997,0.26145 0.97106,0.50538 1.27116,0.67964 0.30008,0.17425 0.58414,0.29556 0.26067,0.16557 0.097,0.0395 0.19157,0.0848 0.28313,0.13564 1.32595,0.45853 2.37222,1.01738 2.57494,1.12415 0.0782,0.0411 0.0181,0.0127 0.0656,0.035 0.52734,0.0106 1.03452,0.0965 1.53609,0.25989 0.3055,-0.12913 0.58767,-0.27689 0.96037,-0.34345 1.65553,-0.29557 2.89975,0.0318 4.14671,0.85153 0.34483,0.22667 0.47887,0.4888 0.74906,0.74249 0.15097,0.0285 0.15306,0.004 0.39029,0.0753 0.38654,0.11578 0.72634,0.23091 0.97669,0.32089 0.12518,0.045 0.22338,0.0814 0.31598,0.11802 0.0463,0.0183 0.0635,0.0219 0.19467,0.0828 0.0328,0.0152 0.0702,0.0305 0.16693,0.084 0.0484,0.0267 0.10794,0.0578 0.23507,0.14672 0.0204,0.0143 0.049,0.0393 0.0874,0.0702 0.9633,0.46975 1.82215,1.13062 2.35914,2.07522 -0.24916,-0.43703 -0.21652,-0.32016 -0.22111,-0.32575 -0.005,-0.006 0.0143,0.017 0.0417,0.0492 0.0548,0.0644 0.14662,0.17245 0.25792,0.30774 0.22261,0.27061 0.52849,0.65794 0.87405,1.14743 0.67303,0.95341 1.10347,2.25598 1.2414,3.75825 0.41745,-1.15418 1.03562,-2.34725 2.22536,-3.4036 l 0.002,-0.002 c 0.18182,-0.16111 0.37495,-0.31104 0.57686,-0.44594 l 0.002,-0.002 c 0.8193,-0.54751 1.9428,-1.07325 3.26031,-1.26168 0.14936,-0.0217 0.35098,0.0392 0.51048,0.0271 -0.2131,-0.36984 -0.42364,-0.62946 -0.62849,-1.04544 l -1.5e-4,-0.002 c -0.29814,-0.60595 -0.47919,-1.26316 -0.53314,-1.9363 l -1.4e-4,-0.002 c -0.16749,-2.09437 0.79118,-3.6579 1.49279,-4.48453 0.3373,-0.39746 0.57907,-0.53472 0.88257,-0.78323 0.098,-0.34405 0.087,-0.53298 0.34107,-0.97326 0.84714,-1.46634 2.06081,-2.31258 3.39071,-2.77784 -0.907,-0.44559 -1.823,-0.96728 -2.62867,-1.89246 -0.35187,0.19454 -0.68964,0.40224 -1.14391,0.53946 -1.71462,0.51794 -3.19459,0.32734 -4.72215,-0.50518 l -0.002,-0.002 c -0.13998,-0.0764 -0.26348,-0.17737 -0.39596,-0.26582 -0.002,-0.002 -0.015,-0.007 -0.0181,-0.009 -0.0524,-0.0272 -0.0935,-0.0485 -0.15317,-0.0787 -0.11942,-0.0605 -0.29119,-0.14388 -0.48917,-0.22668 -0.31381,-0.13126 -1.59556,-0.55248 -2.83886,-1.59715 l -0.002,-0.002 c -0.33739,-0.28345 -0.639,-0.60773 -0.89695,-0.96492 l -1.5e-4,-0.002 c -1.59494,-2.21082 -1.40722,-4.53904 -1.20353,-5.74468 0.0615,-0.36377 0.0897,-0.58895 0.12574,-0.8207 0.009,-0.058 0.0165,-0.11533 0.0381,-0.21973 4.6e-4,-0.002 0.007,-0.0171 0.008,-0.0193 0.0165,-0.51512 0.10527,-1.01472 0.26807,-1.50501 -0.38429,-0.40024 -0.75324,-0.81142 -1.03693,-1.31673 -0.32425,-0.57757 -0.36855,-0.7515 -0.49916,-1.06668 -0.87027,-0.72515 -1.6866,-1.57054 -2.19137,-2.78574 -0.63194,-1.52131 -0.73003,-2.93636 -0.73886,-4.00367 -0.0562,-0.9333 0.13678,-1.75092 0.43886,-2.49834 -0.21743,-0.2057 -0.45172,-0.42324 -0.58211,-0.57222 l -1.5e-4,-0.002 c -0.23353,-0.26726 -0.44106,-0.55797 -0.61724,-0.8661 l -0.002,-0.002 c 0.0418,0.0734 -0.42448,-0.62189 -0.83843,-1.25018 -0.49579,-0.40053 -0.93753,-0.86122 -1.38692,-1.31488 -0.3937,0.006 -0.7844,0.0172 -1.12934,-0.0495 z m -18.01899,29.49701 c -0.65645,1.19826 0.81785,-1.46217 0,0 z m 1.67392,5.1083 c -1.9e-4,7e-4 -0.002,0.002 -0.002,0.002 0.003,0.0101 0.008,0.0194 0.0107,0.0295 -0.003,-0.0109 -0.005,-0.0192 -0.01,-0.0322 z m 12.20732,2.10255 c 0.23221,-0.0367 0.46343,0.008 0.69653,0.002 -0.0483,-0.007 -0.051,-0.0165 -0.10945,-0.0217 -0.26599,-0.0236 -0.67689,0.0341 -0.58708,0.0197 z m 1.93727,0.26658 c 0.027,-0.002 0.25853,0.0296 0.42264,0.0378 0.009,-0.004 0.0194,-0.006 0.0282,-0.0106 -0.21085,-0.009 -0.48909,-0.0239 -0.45084,-0.0273 z"
           style="fill:#52a671;fill-opacity:1;stroke:none;stroke-width:0.264583px;stroke-linecap:butt;stroke-linejoin:miter;stroke-opacity:1"
           id="path1538" />
        <g
           id="g1563"
           transform="matrix(0.21647915,0,0,0.21647915,812.20604,165.31583)"
           style="fill:#36898b;fill-opacity:1;stroke-width:4.481">
          <g
             id="g1561"
             transform="matrix(1.692991,0,0,1.692991,-468.57392,-55.564858)"
             style="fill:#36898b;fill-opacity:1;stroke-width:2.64679">
            <path
               d="m 851.10957,392.82995 c -0.71097,0.93671 -33.72372,17.82065 -34.89934,17.84882 -1.17563,0.0282 -34.95914,-15.25527 -35.71415,-16.15685 -0.75502,-0.90158 -9.86962,-36.84366 -9.63548,-37.99608 0.23414,-1.15242 22.65193,-30.68802 23.69891,-31.22348 1.04698,-0.53547 38.11611,-1.42368 39.18753,-0.93897 1.07143,0.4847 24.87808,28.91272 25.16715,30.0526 0.28906,1.13989 -7.09365,37.47726 -7.80462,38.41396 z"
               sodipodi:type="star"
               style="font-variation-settings:normal;opacity:1;vector-effect:none;fill:#ffffff;fill-opacity:0.345476;stroke:#ffffff;stroke-width:3.9405;stroke-linecap:round;stroke-linejoin:round;stroke-miterlimit:4;stroke-dasharray:none;stroke-dashoffset:0;stroke-opacity:1;paint-order:markers fill stroke;stop-color:#000000;stop-opacity:1"
               id="path1551"
               sodipodi:sides="7"
               sodipodi:cx="815.12817"
               sodipodi:cy="365.51974"
               sodipodi:r1="45.171986"
               sodipodi:r2="40.698551"
               sodipodi:arg1="0.64924208"
               sodipodi:arg2="1.098041"
               inkscape:flatsided="true"
               inkscape:rounded="0.03"
               inkscape:randomized="0"
               inkscape:transform-center-x="-0.043265587"
               inkscape:transform-center-y="-0.566268"
               transform="matrix(0.60263689,0.29667715,-0.29670117,0.60258807,309.23767,-307.70146)" />
            <g
               id="g1559"
               transform="translate(-21.138561,49.983861)"
               style="fill:#4d4d4d;fill-opacity:1;stroke:none;stroke-width:2.64679">
              <path
                 d="m 752.99433,134.34073 c -0.24005,0.41578 -13.37916,8.00165 -13.85926,8.00165 -0.4801,0 -13.61921,-7.58587 -13.85926,-8.00165 -0.24005,-0.41578 -0.24005,-15.58752 0,-16.0033 0.24005,-0.41578 13.37916,-8.00165 13.85926,-8.00165 0.4801,0 13.61921,7.58588 13.85926,8.00165 0.24005,0.41578 0.24005,15.58752 0,16.0033 z"
                 transform="matrix(0.65972601,0,0,0.65968707,235.7375,28.25585)"
                 sodipodi:type="star"
                 style="fill:#4d4d4d;fill-opacity:1;stroke:none;stroke-width:4.01206;stroke-linecap:round;stroke-miterlimit:4;stroke-dasharray:none;stroke-opacity:1;paint-order:markers fill stroke;stop-color:#000000"
                 id="path1553"
                 sodipodi:sides="6"
                 sodipodi:cx="739.13507"
                 sodipodi:cy="126.33908"
                 sodipodi:r1="16.003296"
                 sodipodi:r2="13.859261"
                 sodipodi:arg1="0.52359878"
                 sodipodi:arg2="1.0471976"
                 inkscape:flatsided="true"
                 inkscape:rounded="0.03"
                 inkscape:randomized="0"
                 inkscape:transform-center-x="1.1363857e-05"
                 inkscape:transform-center-y="-1.2369792e-06" />
              <path
                 d="m 721.3473,134.34073 c -0.24005,0.41578 -13.37916,8.00165 -13.85926,8.00165 -0.4801,0 -13.61921,-7.58587 -13.85926,-8.00165 -0.24005,-0.41578 -0.24005,-15.58752 0,-16.0033 0.24005,-0.41578 13.37916,-8.00165 13.85926,-8.00165 0.4801,0 13.61921,7.58588 13.85926,8.00165 0.24005,0.41578 0.24005,15.58752 0,16.0033 z"
                 transform="matrix(0.65972601,0,0,0.65968707,235.7375,28.25585)"
                 inkscape:transform-center-y="-1.2369792e-06"
                 inkscape:transform-center-x="1.1363857e-05"
                 inkscape:randomized="0"
                 inkscape:rounded="0.03"
                 inkscape:flatsided="true"
                 sodipodi:arg2="1.0471976"
                 sodipodi:arg1="0.52359878"
                 sodipodi:r2="13.859261"
                 sodipodi:r1="16.003296"
                 sodipodi:cy="126.33908"
                 sodipodi:cx="707.48804"
                 sodipodi:sides="6"
                 id="path1555"
                 style="fill:#4d4d4d;fill-opacity:1;stroke:none;stroke-width:4.01206;stroke-linecap:round;stroke-miterlimit:4;stroke-dasharray:none;stroke-opacity:1;paint-order:markers fill stroke;stop-color:#000000"
                 sodipodi:type="star" />
              <path
                 d="m 736.94575,107.03397 c -0.24005,0.41577 -13.37916,8.00164 -13.85926,8.00164 -0.4801,0 -13.61921,-7.58587 -13.85926,-8.00164 -0.24005,-0.41578 -0.24005,-15.587522 0,-16.0033 0.24005,-0.415778 13.37916,-8.001648 13.85926,-8.001648 0.4801,0 13.61921,7.58587 13.85926,8.001648 0.24005,0.415778 0.24005,15.58752 0,16.0033 z"
                 transform="matrix(0.65972601,0,0,0.65968707,235.88598,28.25585)"
                 inkscape:transform-center-x="1.2499636e-05"
                 inkscape:randomized="0"
                 inkscape:rounded="0.03"
                 inkscape:flatsided="true"
                 sodipodi:arg2="1.0471976"
                 sodipodi:arg1="0.52359878"
                 sodipodi:r2="13.859261"
                 sodipodi:r1="16.003296"
                 sodipodi:cy="99.032318"
                 sodipodi:cx="723.08649"
                 sodipodi:sides="6"
                 id="path1557"
                 style="fill:#4d4d4d;fill-opacity:1;stroke:none;stroke-width:4.01206;stroke-linecap:round;stroke-miterlimit:4;stroke-dasharray:none;stroke-opacity:1;paint-order:markers fill stroke;stop-color:#000000"
                 sodipodi:type="star" />
            </g>
          </g>
        </g>
      </g>
      <g
         id="g3180"
         transform="matrix(1.2824904,0,0,1.2824904,-201.26046,-76.765386)"
         style="stroke-width:0.779733">
        <path
           transform="matrix(-0.54751375,0.050614,-0.050614,-0.54751375,1080.1372,236.63214)"
           id="path2280"
           style="font-variation-settings:normal;vector-effect:none;fill:#f1f9f9;fill-opacity:1;stroke:none;stroke-width:2.83619;stroke-linecap:round;stroke-linejoin:round;stroke-miterlimit:4;stroke-dasharray:none;stroke-dashoffset:0;stroke-opacity:1;paint-order:markers fill stroke;stop-color:#000000"
           sodipodi:type="inkscape:offset"
           inkscape:radius="19.366714"
           inkscape:original="M 691.72852 129.20508 C 686.24736 129.50213 681.22827 133.72486 681.0957 140.43945 C 677.89003 152.04571 662.01732 146.67807 657.38477 157.39258 C 652.20663 166.25957 653.53483 177.77909 656.3418 187.20898 C 660.62672 195.05238 671.61074 199.18872 679.51953 194.18164 C 688.719 189.55276 699.05555 201.8877 707.01758 195.58789 C 711.79556 188.19114 702.21302 181.89209 703.37305 174.51953 C 704.40496 164.66256 717.64336 165.41702 722.40039 172.02734 C 732.41318 181.34587 734.94735 165.00134 730.86523 158.05078 C 730.47681 156.21835 730.1325 154.35297 730.19922 152.4707 C 722.4668 142.99962 706.04075 146.13464 701.13867 133.21875 C 698.47208 130.26061 695.01721 129.02684 691.72852 129.20508 z "
           d="m 690.67969,109.86719 c -11.8209,0.64063 -22.95967,9.29825 -27.12891,21.03125 -2.32537,0.65173 -5.73319,1.52087 -10.17383,3.92383 -4.75314,2.57206 -10.46896,7.75252 -13.51953,14.4414 -8.46598,15.88896 -5.52068,31.90559 -2.07812,43.47071 a 19.368651,19.368651 0 0 0 1.5664,3.75976 c 8.76896,16.05129 27.99762,24.26936 45.62696,16.46875 0.19345,0.0828 0.27888,0.073 2.14843,0.75195 2.53774,0.92169 6.15959,2.44853 11.82227,2.95118 5.66268,0.50264 14.09057,-1.14227 20.0918,-5.89063 a 19.368651,19.368651 0 0 0 4.25,-4.67969 c 2.26449,-3.50563 3.56489,-7.83165 4.08007,-11.93945 1.64182,0.0188 3.33092,-0.0741 5.11719,-0.44727 10.39335,-2.17141 15.67216,-10.53296 17.64258,-15.96484 3.39399,-9.35626 3.43501,-16.63569 -0.55859,-25.28516 a 19.368651,19.368651 0 0 0 -4.36524,-12.23632 c -8.77695,-10.75049 -19.4964,-12.70178 -24.125,-14.3418 -1.88441,-0.66769 -2.09558,-0.61898 -2.24414,-0.53516 a 19.368651,19.368651 0 0 0 -3.30859,-5.09375 c -6.4436,-7.1481 -16.00075,-10.86403 -24.84375,-10.38476 z m -0.80078,100.67773 -1.6543,0.9375 c -0.38804,0.19525 -0.63776,0.22801 -0.98438,0.36328 0.87697,-0.46269 1.77404,-0.75338 2.63868,-1.30078 z" />
        <path
           transform="matrix(-0.54751375,0.050614,-0.050614,-0.54751375,1080.1372,236.63214)"
           inkscape:original="M 691.72852 129.20508 C 686.24736 129.50213 681.22827 133.72486 681.0957 140.43945 C 677.89003 152.04571 662.01732 146.67807 657.38477 157.39258 C 652.20663 166.25957 653.53483 177.77909 656.3418 187.20898 C 660.62672 195.05238 671.61074 199.18872 679.51953 194.18164 C 688.719 189.55276 699.05555 201.8877 707.01758 195.58789 C 711.79556 188.19114 702.21302 181.89209 703.37305 174.51953 C 704.40496 164.66256 717.64336 165.41702 722.40039 172.02734 C 732.41318 181.34587 734.94735 165.00134 730.86523 158.05078 C 730.47681 156.21835 730.1325 154.35297 730.19922 152.4707 C 722.4668 142.99962 706.04075 146.13464 701.13867 133.21875 C 698.47208 130.26061 695.01721 129.02684 691.72852 129.20508 z "
           inkscape:radius="9.0978346"
           sodipodi:type="inkscape:offset"
           style="font-variation-settings:normal;vector-effect:none;fill:#d3ebee;fill-opacity:1;stroke:none;stroke-width:2.83619;stroke-linecap:round;stroke-linejoin:round;stroke-miterlimit:4;stroke-dasharray:none;stroke-dashoffset:0;stroke-opacity:1;paint-order:markers fill stroke;stop-color:#000000"
           id="path2282"
           d="m 691.23633,120.12109 c -9.18349,0.4977 -17.69976,7.92307 -18.97852,17.9961 -0.12686,0.51597 -0.01,0.39955 -0.49609,0.71289 -0.55376,0.35692 -2.15572,0.99131 -4.54102,1.68945 -2.3853,0.69814 -5.5112,1.46935 -8.95703,3.33399 -3.36519,1.821 -7.01011,5.12107 -9.06055,9.62304 -6.79411,12.24687 -4.68492,25.89754 -1.58007,36.32813 a 9.0987444,9.0987444 0 0 0 0.73437,1.76562 c 6.77591,12.40307 22.99061,18.55367 36.0293,10.29883 l -0.77734,0.43945 c 0.47909,-0.24106 2.12564,-0.0228 7.01757,1.75391 2.44597,0.88835 5.38075,2.0338 9.22461,2.375 3.84386,0.3412 8.93594,-0.64913 12.81055,-3.71484 a 9.0987444,9.0987444 0 0 0 1.99805,-2.19922 c 2.2659,-3.50782 3.08891,-7.91014 2.67382,-11.38867 -0.41508,-3.47853 -1.62127,-6.04481 -2.58984,-8.04883 -1.78569,-3.69467 -2.07528,-4.9048 -2.19726,-4.75 0.99335,0.20134 2.35306,0.84511 2.46874,1.00586 a 9.0987444,9.0987444 0 0 0 1.1875,1.3457 c 3.61424,3.36363 8.45655,6.16599 14.17774,4.9707 5.72119,-1.19529 8.7997,-5.85947 10.08984,-9.41601 2.31209,-6.37375 2.14174,-12.50927 -0.78711,-18.65821 -0.23368,-1.23154 -0.40907,-2.32554 -0.39257,-2.79101 a 9.0987444,9.0987444 0 0 0 -2.04493,-6.07617 c -6.17311,-7.56116 -14.41043,-9.31761 -19.59961,-11.15625 -5.18917,-1.83864 -6.83379,-2.49248 -8.00195,-5.57032 a 9.0987444,9.0987444 0 0 0 -1.74805,-2.86328 c -4.4409,-4.92644 -10.76223,-7.32551 -16.66015,-7.00586 z" />
        <path
           sodipodi:nodetypes="csccssccscccscsccscccccscsccscccsccscccsccc"
           d="m 694.36135,200.34363 c 1.29917,-0.0791 2.63112,-0.47347 3.54729,-1.14218 0.91619,-0.66872 1.44234,-1.53307 1.32422,-2.83701 l 0.0249,0.12927 c -0.41637,-1.36715 -0.3434,-2.58512 0.0987,-3.59837 0.44215,-1.01325 1.22121,-1.80212 2.12276,-2.44708 1.80313,-1.28989 4.14998,-2.06839 5.83599,-2.84424 0.0257,-0.0121 0.0521,-0.0224 0.0791,-0.0311 1.71895,-0.52874 2.69967,-1.57572 3.47961,-2.93595 0.77996,-1.36024 1.30497,-3.0251 2.00844,-4.61722 0.008,-0.0178 0.0168,-0.0351 0.0265,-0.052 0.3429,-0.61767 0.40119,-1.215 0.31193,-1.89896 -0.0892,-0.68396 -0.34479,-1.43639 -0.61943,-2.23239 -0.52346,-1.51715 -1.09059,-3.28377 -0.30982,-5.07807 -0.17588,-1.90188 -1.26045,-3.28104 -2.80183,-4.40874 -1.56386,-1.14415 -3.56765,-1.9741 -5.31953,-2.66394 -0.007,-0.002 -0.015,-0.006 -0.0224,-0.009 -0.85995,-0.37733 -1.56711,-0.39185 -2.28501,-0.21801 -0.71791,0.17384 -1.44249,0.56197 -2.20174,1.02105 -1.51852,0.91815 -3.19918,2.16036 -5.38008,1.9544 -0.0503,-0.004 -0.0997,-0.0154 -0.14745,-0.0316 -2.95788,-1.0124 -5.67299,-1.84034 -8.85614,-1.90777 l -0.002,-0.002 c -0.87949,-0.0212 -1.32166,0.2807 -1.65116,0.81698 -0.32948,0.53631 -0.47935,1.37367 -0.41411,2.28697 0.0652,0.91331 0.33768,1.89183 0.74138,2.68812 0.40368,0.79628 0.94282,1.39154 1.43804,1.62609 0.0853,0.0403 -1.31122,-0.24306 -1.25111,-0.17037 2.49015,2.72756 0.70671,7.93604 -2.03099,8.39688 -2.4044,0.40475 -5.22159,-0.3053 -6.77265,-1.25481 -0.69507,0.40237 -1.58581,-0.56333 -1.59788,-0.57413 -0.84467,-0.74522 -0.99916,-0.52896 -1.46108,-0.47331 -0.46194,0.0556 -0.82945,0.34024 -1.10606,0.84534 -0.55318,1.01019 -0.50666,2.80725 0.58286,4.00667 0.0404,0.0444 0.0745,0.0943 0.10105,0.14813 0.6436,1.30372 0.46747,2.68076 0.43468,3.87369 -0.0328,1.19293 0.0258,2.14572 0.8007,2.95657 0.0137,0.0143 0.0264,0.0294 0.0387,0.045 1.88138,2.36966 5.61381,2.76544 8.7371,3.56025 2.57144,-0.0189 4.39601,1.26779 5.88165,2.74786 1.49601,1.4904 2.75709,3.1434 4.29752,4.10331 0.6718,0.18282 1.48058,0.27143 2.31651,0.22049 z"
           style="font-variation-settings:normal;vector-effect:none;fill:#e6d8a3;fill-opacity:1;stroke:none;stroke-width:1.55947;stroke-linecap:round;stroke-linejoin:round;stroke-miterlimit:4;stroke-dasharray:none;stroke-dashoffset:0;stroke-opacity:1;paint-order:markers fill stroke;stop-color:#000000"
           id="path1465" />
        <path
           inkscape:original-d="m 672.62555,190.11115 c 1.29279,0.72871 2.45107,1.83359 3.88101,2.28645 0.36632,0.11602 0.72236,0.0392 1.0726,0.21245 0.82192,0.40673 -0.14492,0.15428 0.61963,0.38102 0.93398,0.27703 1.92826,0.4019 2.85301,0.618 0.87985,0.20561 1.77545,0.56162 2.71226,0.78055 0.9268,0.21659 3.59996,1.55837 4.18085,2.27643 0.28588,0.3534 0.66777,0.8361 0.84536,1.24246 0.21662,0.49572 -0.22549,0.0977 0.19843,0.56606 0.25658,0.28345 0.5518,0.5202 0.80769,0.80422 0.10373,0.11513 0.0669,0.32657 0.18552,0.42629 1.6241,1.36537 2.59954,1.34854 4.77955,1.14701 0.39767,-0.0368 0.93234,0.01 1.30377,-0.12053 1.31839,-0.46214 3.22218,-1.55751 3.68673,-2.8154 0.0725,-0.19639 0.32834,-0.42575 0.37403,-0.62124 0.10396,-0.44485 -0.0977,-1.38838 -0.30534,-1.72272 -0.11311,-0.18208 -0.26074,-1.72032 -0.17855,-1.9313 0.0955,-0.24503 0.1545,-0.45564 0.2232,-0.74031 0.0145,-0.0606 0.0791,-0.42826 0.10341,-0.44329 0.0817,-0.0505 0.19904,0.0123 0.2869,-0.0265 0.2729,-0.12054 -0.009,-0.37582 0.10488,-0.44573 0.0805,-0.0496 0.19604,0.0124 0.28238,-0.0261 0.28596,-0.12738 0.81985,-1.01339 1.48637,-1.30621 0.4409,-0.19369 0.92728,-0.57398 1.39505,-0.71337 0.32149,-0.0958 0.69451,-0.10411 1.00066,-0.23859 0.14003,-0.0616 0.26784,-0.2681 0.4078,-0.3299 0.0879,-0.0389 0.20551,0.0245 0.2869,-0.0266 0.0411,-0.0258 -0.0546,-0.11927 -0.0133,-0.14486 0.0824,-0.0512 0.19821,0.005 0.28973,-0.0268 0.47122,-0.16519 1.123,-0.4651 1.54933,-0.72992 0.15023,-0.0933 0.25138,-0.2615 0.41326,-0.33268 0.13318,-0.0586 0.30141,0.0184 0.43459,-0.0402 0.64445,-0.28312 1.18792,-0.96455 1.78942,-1.33709 0.13036,-0.0807 0.29751,-0.0944 0.42118,-0.18504 0.49377,-0.36197 0.89423,-0.8864 1.3469,-1.29616 0.16382,-0.1483 0.61724,-0.2462 0.67746,-0.49352 0.1684,-0.69148 -0.46631,-1.65131 -0.0669,-2.30403 0.63429,-1.03653 1.78519,-2.14392 2.0506,-3.27767 0.22013,-0.94031 -1.17285,-3.10583 -1.29583,-4.43616 -0.0504,-0.54549 -0.21798,-1.19595 -0.1607,-1.73835 0.15409,-1.45912 0.58583,-3.25642 -0.28487,-4.65574 -0.12991,-0.2088 -0.35295,-0.34648 -0.49408,-0.54786 -1.09649,-1.56461 -1.65741,-1.56263 -3.18233,-2.6307 -2.12574,-1.48888 -4.31526,-2.5619 -7.00243,-2.3135 -0.21134,0.0195 -0.80951,-0.0115 -1.01404,0.0937 -0.72317,0.37226 -1.17472,1.14374 -1.92297,1.50353 -0.4144,0.19925 -0.86836,0.28513 -1.2934,0.41176 -0.92238,0.27482 -1.74203,0.84849 -2.67631,1.12687 -1.35476,0.40364 -3.24879,-1.90888 -4.81944,-1.76368 -0.63897,0.059 -1.26281,0.0623 -1.89661,0.0293 -1.5409,-0.0804 -3.22413,-0.92497 -4.7268,-0.15656 -1.08481,0.55471 -0.69225,2.01893 -0.60319,2.98234 0.0342,0.37088 0.33231,2.01337 0.21422,2.31725 -0.0951,0.24471 -0.2171,0.5807 -0.0642,0.87968 0.73743,1.44212 2.78679,2.26204 3.35978,3.88353 0.37432,1.05927 -0.11361,1.34112 -0.22216,2.36901 -0.14367,1.36052 -0.39044,3.54274 -1.8013,4.26419 -1.65395,0.84575 -2.97326,0.64293 -4.65028,-0.008 -0.69206,-0.26855 -0.21494,-0.20523 -0.76475,-0.37045 -0.63906,-0.19206 -1.38759,-0.18218 -1.95548,-0.55203 -0.49327,-0.32124 -0.94147,-0.72431 -1.43386,-1.04596 -0.18519,-0.12097 -0.47866,-0.0689 -0.61859,-0.24015 -0.0613,-0.0751 0.0122,-0.20093 -0.0268,-0.28973 -0.21244,-0.48359 -0.87287,-0.67684 -1.36438,-0.86861 -0.58663,-0.22887 -3.11336,-0.2372 -3.3092,0.5964 -0.0674,0.28678 0.0662,0.71574 0.0936,1.01235 0.0495,0.53603 0.007,1.21875 0.1607,1.73835 0.0747,0.25207 0.2906,0.44887 0.35721,0.70319 0.0497,0.18966 0.009,0.39492 0.0542,0.58568 0.2117,0.89083 0.85568,1.66932 1.11885,2.55264 0.33004,1.10767 -0.79895,1.68523 -0.48128,2.75134 0.0171,0.0573 1.03958,2.0578 1.04381,2.06193 0.0548,0.0536 0.21552,-0.0219 0.22358,0.0541 0.0221,0.21107 -0.0313,0.4233 -0.0468,0.63495 z"
           inkscape:path-effect="#path-effect1429;#path-effect1431"
           id="path1427"
           d="m 672.62555,190.11115 c 1.09409,1.12081 2.50051,1.93352 4.01791,2.32178 0.41367,0.10585 0.83762,0.18161 1.23258,0.34389 0.21552,0.0886 0.41987,0.2019 0.63121,0.30001 1.1553,0.53635 2.46499,0.59788 3.71053,0.86439 0.62835,0.13445 1.24433,0.32242 1.84983,0.53754 1.19055,0.42298 2.35412,0.95828 3.35518,1.72913 0.50162,0.38627 0.97049,0.84533 1.22475,1.42514 0.12169,0.2775 0.192,0.57779 0.34116,0.84154 0.215,0.38016 0.57414,0.65233 0.8807,0.9634 0.23369,0.23713 0.44068,0.50154 0.69476,0.71667 0.36237,0.30681 0.80912,0.50224 1.26955,0.61817 0.46044,0.11594 0.93652,0.15571 1.41079,0.17834 0.78583,0.0375 1.58001,0.0284 2.34984,-0.13379 0.61043,-0.12859 1.19975,-0.35285 1.74689,-0.65251 0.9206,-0.50421 1.72052,-1.22277 2.33612,-2.07292 0.22577,-0.31179 0.43239,-0.65537 0.47613,-1.03783 0.0316,-0.27595 -0.0242,-0.55502 -0.10645,-0.82031 -0.0822,-0.26529 -0.19099,-0.5219 -0.2699,-0.7882 -0.16731,-0.56462 -0.19705,-1.1634 -0.14781,-1.75023 0.0361,-0.4302 0.11788,-0.86751 0.33939,-1.23806 0.10532,-0.17618 0.24035,-0.33367 0.39178,-0.47223 0.28213,-0.25814 0.61775,-0.44907 0.93076,-0.66875 0.36744,-0.25788 0.70615,-0.55724 1.09037,-0.78937 0.49277,-0.29772 1.04608,-0.47654 1.5843,-0.68095 0.37828,-0.14366 0.75165,-0.30117 1.11272,-0.48383 0.11566,-0.0585 0.23001,-0.11958 0.34515,-0.17913 0.52796,-0.27306 1.07204,-0.5139 1.62162,-0.74032 0.30598,-0.12606 0.61434,-0.24796 0.90798,-0.40057 0.67666,-0.35167 1.25885,-0.85737 1.8327,-1.35961 0.37613,-0.32919 0.75315,-0.66009 1.16977,-0.93625 0.31377,-0.20799 0.65949,-0.39398 0.87248,-0.70437 0.21079,-0.30719 0.26188,-0.69618 0.26347,-1.06873 0.002,-0.55785 -0.0909,-1.12891 0.062,-1.66541 0.16588,-0.58221 0.59824,-1.04367 1.00548,-1.4916 0.20361,-0.22397 0.40516,-0.45148 0.57229,-0.70384 0.16713,-0.25237 0.29974,-0.53182 0.35294,-0.8298 0.0519,-0.29058 0.0269,-0.59082 -0.0375,-0.87889 -0.0643,-0.28808 -0.1672,-0.56593 -0.27219,-0.8418 -0.39115,-1.02775 -0.81918,-2.05301 -0.99719,-3.13818 -0.0996,-0.60733 -0.11927,-1.22684 -0.0729,-1.84054 0.0499,-0.66007 0.17565,-1.31342 0.20622,-1.97466 0.0306,-0.66125 -0.041,-1.34717 -0.35947,-1.92749 -0.17124,-0.31206 -0.40774,-0.58278 -0.64768,-0.84571 -0.58491,-0.64094 -1.20297,-1.25295 -1.86956,-1.80845 -1.06449,-0.88708 -2.25177,-1.62765 -3.52054,-2.18469 -1.5293,-0.67142 -3.19832,-1.07653 -4.86601,-0.985 -0.41974,0.023 -0.84441,0.0791 -1.22964,0.24732 -0.39118,0.17085 -0.72413,0.44941 -1.04521,0.7307 -0.32107,0.28129 -0.64035,0.572 -1.01619,0.77439 -0.59137,0.31845 -1.28203,0.39708 -1.9012,0.65739 -0.31155,0.13098 -0.60197,0.30672 -0.90425,0.45785 -0.30229,0.15113 -0.62322,0.27932 -0.96024,0.30449 -0.3795,0.0283 -0.75882,-0.0762 -1.10507,-0.23412 -0.34624,-0.15792 -0.66537,-0.36837 -0.99039,-0.56634 -0.74041,-0.45098 -1.53058,-0.845 -2.38183,-1.00918 -1.13102,-0.21814 -2.30506,-0.0197 -3.44633,-0.17559 -0.5523,-0.0754 -1.0918,-0.23324 -1.6463,-0.2903 -0.27725,-0.0285 -0.55855,-0.0315 -0.83355,0.0138 -0.27501,0.0453 -0.54409,0.14022 -0.77483,0.29656 -0.22635,0.15336 -0.41203,0.36366 -0.54753,0.60113 -0.1355,0.23748 -0.22155,0.50167 -0.26484,0.77163 -0.11738,0.73204 0.0764,1.47273 0.21496,2.20105 0.10591,0.55655 0.18031,1.12262 0.1553,1.6886 -0.016,0.3623 -0.0724,0.72811 -0.009,1.08513 0.0713,0.3997 0.2908,0.76158 0.56673,1.05942 0.27594,0.29783 0.60762,0.53783 0.94213,0.76795 0.3345,0.23012 0.67562,0.45355 0.97781,0.72471 0.30219,0.27117 0.5668,0.5953 0.7102,0.97515 0.19883,0.52668 0.14994,1.11076 0.0846,1.66991 -0.0993,0.84903 -0.23045,1.696 -0.44449,2.52359 -0.12606,0.48742 -0.28174,0.96986 -0.51174,1.41771 -0.23001,0.44784 -0.53724,0.86166 -0.93287,1.17302 -0.46174,0.36338 -1.03257,0.57631 -1.61561,0.64917 -0.58304,0.0729 -1.17818,0.01 -1.74643,-0.13978 -0.62136,-0.16343 -1.21089,-0.42767 -1.81826,-0.6372 -0.34664,-0.11958 -0.69911,-0.22135 -1.04967,-0.32889 -0.54443,-0.16702 -1.08797,-0.34953 -1.5876,-0.62278 -0.43081,-0.2356 -0.82359,-0.53593 -1.1897,-0.86314 -0.19866,-0.17755 -0.38997,-0.36332 -0.59259,-0.53634 -0.41761,-0.35661 -0.88668,-0.65988 -1.40372,-0.84491 -0.76813,-0.27488 -1.637,-0.27371 -2.39389,0.0308 -0.18433,0.0742 -0.36301,0.16635 -0.51746,0.29133 -0.15445,0.12497 -0.28427,0.28433 -0.35604,0.4696 -0.0848,0.21904 -0.0849,0.46314 -0.0451,0.69465 0.0398,0.23151 0.11759,0.45444 0.1857,0.67925 0.16232,0.53575 0.2706,1.08628 0.36706,1.6377 0.0748,0.42763 0.14374,0.86043 0.30459,1.26365 0.16582,0.41567 0.42402,0.78671 0.64378,1.17656 0.21975,0.38985 0.40564,0.81677 0.40403,1.26429 -0.001,0.40646 -0.15682,0.79437 -0.30313,1.17359 -0.1463,0.37921 -0.28805,0.77528 -0.26053,1.18081 0.0177,0.26025 0.10529,0.51231 0.22797,0.74251 0.12268,0.23019 0.27994,0.44013 0.44438,0.64261 0.20125,0.24781 0.41868,0.4935 0.52641,0.79401 0.0766,0.21361 0.0931,0.44838 0.0472,0.67061 z"
           style="font-variation-settings:normal;vector-effect:none;fill:#81c198;fill-opacity:1;stroke:none;stroke-width:1.55947;stroke-linecap:round;stroke-linejoin:round;stroke-miterlimit:4;stroke-dasharray:none;stroke-dashoffset:0;stroke-opacity:1;paint-order:markers fill stroke;stop-color:#000000" />
        <path
           d="m 695.11216,198.94551 c 4.88399,-0.43308 1.04016,-5.92855 3.87533,-8.13946 2.86231,-3.15221 7.6764,-3.32807 10.54463,-6.42207 1.1512,-3.41269 3.61931,-5.96482 1.30261,-9.50224 0.005,-2.78251 0.73897,-6.32277 -2.51239,-7.80242 -2.53847,-1.34203 -5.98595,-3.79344 -8.57892,-1.17771 -3.32145,2.70155 -7.19155,1.86565 -10.66972,0.19921 -2.31923,-0.0912 -5.49353,-1.10434 -4.41426,2.41215 0.90876,2.85765 4.94087,4.55454 3.36641,8.14251 -0.1817,3.12107 -2.00851,6.72128 -5.60943,6.5789 -3.79921,0.11588 -6.94994,-2.18008 -10.10776,-3.87414 0.31947,2.91686 2.08837,5.48782 1.34639,8.51556 1.77583,3.15499 5.9874,3.68169 9.24736,4.27766 3.18168,0.46196 6.0292,2.30558 7.7401,5.05026 0.97127,1.63835 2.60814,2.286 4.46965,1.74179 z"
           style="font-variation-settings:normal;vector-effect:none;fill:#61b17e;fill-opacity:1;stroke:none;stroke-width:1.55947;stroke-linecap:round;stroke-linejoin:round;stroke-miterlimit:4;stroke-dasharray:none;stroke-dashoffset:0;stroke-opacity:1;paint-order:markers fill stroke;stop-color:#000000"
           id="path1447" />
        <path
           d="m 694.52494,196.16334 c 0.43076,-3.36082 0.70463,-7.17336 4.17532,-8.89455 3.06649,-2.47705 8.31656,-2.50521 9.35044,-6.98847 0.84946,-3.27975 0.19535,-6.68531 -0.53896,-9.85963 -1.89504,-2.89872 -5.88829,-3.31893 -8.40064,-0.91838 -3.02044,1.93442 -6.64694,1.36918 -9.66252,-0.2625 -0.80094,1.04411 3.19117,4.57367 1.54006,7.13621 -0.23098,4.46654 -2.98858,9.55097 -7.95863,9.71342 -2.12567,0.32624 -8.53095,-2.46233 -5.48098,1.51097 3.96843,1.95646 8.88228,1.60845 12.42249,4.59387 2.01217,0.71361 2.30915,4.33493 4.55342,3.96906 z"
           style="font-variation-settings:normal;vector-effect:none;fill:#52a671;fill-opacity:1;stroke:none;stroke-width:1.55947;stroke-linecap:round;stroke-linejoin:round;stroke-miterlimit:4;stroke-dasharray:none;stroke-dashoffset:0;stroke-opacity:1;paint-order:markers fill stroke;stop-color:#000000"
           id="path1454" />
        <g
           style="fill:#36898b;fill-opacity:1;stroke-width:3.49398"
           transform="matrix(-0.21647915,0,0,-0.21647915,853.24299,227.8669)"
           id="use2995">
          <g
             style="fill:#36898b;fill-opacity:1;stroke-width:2.06379"
             transform="matrix(1.692991,0,0,1.692991,-468.57392,-55.564858)"
             id="g3193">
            <path
               transform="matrix(0.60263689,0.29667715,-0.29670117,0.60258807,309.23767,-307.70146)"
               inkscape:transform-center-y="-0.566268"
               inkscape:transform-center-x="-0.043265587"
               inkscape:randomized="0"
               inkscape:rounded="0.03"
               inkscape:flatsided="true"
               sodipodi:arg2="1.098041"
               sodipodi:arg1="0.64924208"
               sodipodi:r2="40.698551"
               sodipodi:r1="45.171986"
               sodipodi:cy="365.51974"
               sodipodi:cx="815.12817"
               sodipodi:sides="7"
               id="path3183"
               style="font-variation-settings:normal;opacity:1;vector-effect:none;fill:#ffffff;fill-opacity:0.345476;stroke:#ffffff;stroke-width:3.07254;stroke-linecap:round;stroke-linejoin:round;stroke-miterlimit:4;stroke-dasharray:none;stroke-dashoffset:0;stroke-opacity:1;paint-order:markers fill stroke;stop-color:#000000;stop-opacity:1"
               sodipodi:type="star"
               d="m 851.10957,392.82995 c -0.71097,0.93671 -33.72372,17.82065 -34.89934,17.84882 -1.17563,0.0282 -34.95914,-15.25527 -35.71415,-16.15685 -0.75502,-0.90158 -9.86962,-36.84366 -9.63548,-37.99608 0.23414,-1.15242 22.65193,-30.68802 23.69891,-31.22348 1.04698,-0.53547 38.11611,-1.42368 39.18753,-0.93897 1.07143,0.4847 24.87808,28.91272 25.16715,30.0526 0.28906,1.13989 -7.09365,37.47726 -7.80462,38.41396 z" />
            <g
               style="fill:#4d4d4d;fill-opacity:1;stroke:none;stroke-width:2.06379"
               transform="translate(-21.138561,49.983861)"
               id="g3191">
              <path
                 inkscape:transform-center-y="-1.2369792e-06"
                 inkscape:transform-center-x="1.1363857e-05"
                 inkscape:randomized="0"
                 inkscape:rounded="0.03"
                 inkscape:flatsided="true"
                 sodipodi:arg2="1.0471976"
                 sodipodi:arg1="0.52359878"
                 sodipodi:r2="13.859261"
                 sodipodi:r1="16.003296"
                 sodipodi:cy="126.33908"
                 sodipodi:cx="739.13507"
                 sodipodi:sides="6"
                 id="path3185"
                 style="fill:#4d4d4d;fill-opacity:1;stroke:none;stroke-width:3.12834;stroke-linecap:round;stroke-miterlimit:4;stroke-dasharray:none;stroke-opacity:1;paint-order:markers fill stroke;stop-color:#000000"
                 sodipodi:type="star"
                 transform="matrix(0.65972601,0,0,0.65968707,235.7375,28.25585)"
                 d="m 752.99433,134.34073 c -0.24005,0.41578 -13.37916,8.00165 -13.85926,8.00165 -0.4801,0 -13.61921,-7.58587 -13.85926,-8.00165 -0.24005,-0.41578 -0.24005,-15.58752 0,-16.0033 0.24005,-0.41578 13.37916,-8.00165 13.85926,-8.00165 0.4801,0 13.61921,7.58588 13.85926,8.00165 0.24005,0.41578 0.24005,15.58752 0,16.0033 z" />
              <path
                 sodipodi:type="star"
                 style="fill:#4d4d4d;fill-opacity:1;stroke:none;stroke-width:3.12834;stroke-linecap:round;stroke-miterlimit:4;stroke-dasharray:none;stroke-opacity:1;paint-order:markers fill stroke;stop-color:#000000"
                 id="path3187"
                 sodipodi:sides="6"
                 sodipodi:cx="707.48804"
                 sodipodi:cy="126.33908"
                 sodipodi:r1="16.003296"
                 sodipodi:r2="13.859261"
                 sodipodi:arg1="0.52359878"
                 sodipodi:arg2="1.0471976"
                 inkscape:flatsided="true"
                 inkscape:rounded="0.03"
                 inkscape:randomized="0"
                 inkscape:transform-center-x="1.1363857e-05"
                 inkscape:transform-center-y="-1.2369792e-06"
                 transform="matrix(0.65972601,0,0,0.65968707,235.7375,28.25585)"
                 d="m 721.3473,134.34073 c -0.24005,0.41578 -13.37916,8.00165 -13.85926,8.00165 -0.4801,0 -13.61921,-7.58587 -13.85926,-8.00165 -0.24005,-0.41578 -0.24005,-15.58752 0,-16.0033 0.24005,-0.41578 13.37916,-8.00165 13.85926,-8.00165 0.4801,0 13.61921,7.58588 13.85926,8.00165 0.24005,0.41578 0.24005,15.58752 0,16.0033 z" />
              <path
                 sodipodi:type="star"
                 style="fill:#4d4d4d;fill-opacity:1;stroke:none;stroke-width:3.12834;stroke-linecap:round;stroke-miterlimit:4;stroke-dasharray:none;stroke-opacity:1;paint-order:markers fill stroke;stop-color:#000000"
                 id="path3189"
                 sodipodi:sides="6"
                 sodipodi:cx="723.08649"
                 sodipodi:cy="99.032318"
                 sodipodi:r1="16.003296"
                 sodipodi:r2="13.859261"
                 sodipodi:arg1="0.52359878"
                 sodipodi:arg2="1.0471976"
                 inkscape:flatsided="true"
                 inkscape:rounded="0.03"
                 inkscape:randomized="0"
                 inkscape:transform-center-x="1.2499636e-05"
                 transform="matrix(0.65972601,0,0,0.65968707,235.88598,28.25585)"
                 d="m 736.94575,107.03397 c -0.24005,0.41577 -13.37916,8.00164 -13.85926,8.00164 -0.4801,0 -13.61921,-7.58587 -13.85926,-8.00164 -0.24005,-0.41578 -0.24005,-15.587522 0,-16.0033 0.24005,-0.415778 13.37916,-8.001648 13.85926,-8.001648 0.4801,0 13.61921,7.58587 13.85926,8.001648 0.24005,0.415778 0.24005,15.58752 0,16.0033 z" />
            </g>
          </g>
        </g>
      </g>
      <path
         style="fill:none;stroke:#a5a295;stroke-width:2.91013;stroke-linecap:butt;stroke-linejoin:miter;stroke-miterlimit:4;stroke-dasharray:none;stroke-opacity:0.5"
         d="m 703.72338,170.52798 c 12.8925,24.30031 38.22689,0.0349 51.8787,9.82043 23.16364,16.47608 48.8471,45.96291 82.12935,36.53566"
         id="path3153-5"
         inkscape:connector-curvature="0"
         sodipodi:nodetypes="ccc" />
      <g
         style="fill:#36898b;fill-opacity:1;stroke-width:4.481"
         transform="matrix(-0.21647915,0,0,-0.21647915,1000.144,258.96084)"
         id="g3157">
        <g
           style="fill:#36898b;fill-opacity:1;stroke-width:2.64679"
           transform="matrix(1.692991,0,0,1.692991,-468.57392,-55.564858)"
           id="g3155">
          <path
             transform="matrix(0.60263689,0.29667715,-0.29670117,0.60258807,309.23767,-307.70146)"
             inkscape:transform-center-y="-0.566268"
             inkscape:transform-center-x="-0.043265587"
             inkscape:randomized="0"
             inkscape:rounded="0.03"
             inkscape:flatsided="true"
             sodipodi:arg2="1.098041"
             sodipodi:arg1="0.64924208"
             sodipodi:r2="40.698551"
             sodipodi:r1="45.171986"
             sodipodi:cy="365.51974"
             sodipodi:cx="815.12817"
             sodipodi:sides="7"
             id="path3145"
             style="font-variation-settings:normal;opacity:1;vector-effect:none;fill:#ffffff;fill-opacity:0.345476;stroke:#ffffff;stroke-width:3.9405;stroke-linecap:round;stroke-linejoin:round;stroke-miterlimit:4;stroke-dasharray:none;stroke-dashoffset:0;stroke-opacity:1;paint-order:markers fill stroke;stop-color:#000000;stop-opacity:1"
             sodipodi:type="star"
             d="m 851.10957,392.82995 c -0.71097,0.93671 -33.72372,17.82065 -34.89934,17.84882 -1.17563,0.0282 -34.95914,-15.25527 -35.71415,-16.15685 -0.75502,-0.90158 -9.86962,-36.84366 -9.63548,-37.99608 0.23414,-1.15242 22.65193,-30.68802 23.69891,-31.22348 1.04698,-0.53547 38.11611,-1.42368 39.18753,-0.93897 1.07143,0.4847 24.87808,28.91272 25.16715,30.0526 0.28906,1.13989 -7.09365,37.47726 -7.80462,38.41396 z" />
          <g
             style="fill:#4d4d4d;fill-opacity:1;stroke:none;stroke-width:2.64679"
             transform="translate(-21.138561,49.983861)"
             id="g3153">
            <path
               inkscape:transform-center-y="-1.2369792e-06"
               inkscape:transform-center-x="1.1363857e-05"
               inkscape:randomized="0"
               inkscape:rounded="0.03"
               inkscape:flatsided="true"
               sodipodi:arg2="1.0471976"
               sodipodi:arg1="0.52359878"
               sodipodi:r2="13.859261"
               sodipodi:r1="16.003296"
               sodipodi:cy="126.33908"
               sodipodi:cx="739.13507"
               sodipodi:sides="6"
               id="path3147"
               style="fill:#4d4d4d;fill-opacity:1;stroke:none;stroke-width:4.01206;stroke-linecap:round;stroke-miterlimit:4;stroke-dasharray:none;stroke-opacity:1;paint-order:markers fill stroke;stop-color:#000000"
               sodipodi:type="star"
               transform="matrix(0.65972601,0,0,0.65968707,235.7375,28.25585)"
               d="m 752.99433,134.34073 c -0.24005,0.41578 -13.37916,8.00165 -13.85926,8.00165 -0.4801,0 -13.61921,-7.58587 -13.85926,-8.00165 -0.24005,-0.41578 -0.24005,-15.58752 0,-16.0033 0.24005,-0.41578 13.37916,-8.00165 13.85926,-8.00165 0.4801,0 13.61921,7.58588 13.85926,8.00165 0.24005,0.41578 0.24005,15.58752 0,16.0033 z" />
            <path
               sodipodi:type="star"
               style="fill:#4d4d4d;fill-opacity:1;stroke:none;stroke-width:4.01206;stroke-linecap:round;stroke-miterlimit:4;stroke-dasharray:none;stroke-opacity:1;paint-order:markers fill stroke;stop-color:#000000"
               id="path3149"
               sodipodi:sides="6"
               sodipodi:cx="707.48804"
               sodipodi:cy="126.33908"
               sodipodi:r1="16.003296"
               sodipodi:r2="13.859261"
               sodipodi:arg1="0.52359878"
               sodipodi:arg2="1.0471976"
               inkscape:flatsided="true"
               inkscape:rounded="0.03"
               inkscape:randomized="0"
               inkscape:transform-center-x="1.1363857e-05"
               inkscape:transform-center-y="-1.2369792e-06"
               transform="matrix(0.65972601,0,0,0.65968707,235.7375,28.25585)"
               d="m 721.3473,134.34073 c -0.24005,0.41578 -13.37916,8.00165 -13.85926,8.00165 -0.4801,0 -13.61921,-7.58587 -13.85926,-8.00165 -0.24005,-0.41578 -0.24005,-15.58752 0,-16.0033 0.24005,-0.41578 13.37916,-8.00165 13.85926,-8.00165 0.4801,0 13.61921,7.58588 13.85926,8.00165 0.24005,0.41578 0.24005,15.58752 0,16.0033 z" />
            <path
               sodipodi:type="star"
               style="fill:#4d4d4d;fill-opacity:1;stroke:none;stroke-width:4.01206;stroke-linecap:round;stroke-miterlimit:4;stroke-dasharray:none;stroke-opacity:1;paint-order:markers fill stroke;stop-color:#000000"
               id="path3151"
               sodipodi:sides="6"
               sodipodi:cx="723.08649"
               sodipodi:cy="99.032318"
               sodipodi:r1="16.003296"
               sodipodi:r2="13.859261"
               sodipodi:arg1="0.52359878"
               sodipodi:arg2="1.0471976"
               inkscape:flatsided="true"
               inkscape:rounded="0.03"
               inkscape:randomized="0"
               inkscape:transform-center-x="1.2499636e-05"
               transform="matrix(0.65972601,0,0,0.65968707,235.88598,28.25585)"
               d="m 736.94575,107.03397 c -0.24005,0.41577 -13.37916,8.00164 -13.85926,8.00164 -0.4801,0 -13.61921,-7.58587 -13.85926,-8.00164 -0.24005,-0.41578 -0.24005,-15.587522 0,-16.0033 0.24005,-0.415778 13.37916,-8.001648 13.85926,-8.001648 0.4801,0 13.61921,7.58587 13.85926,8.001648 0.24005,0.415778 0.24005,15.58752 0,16.0033 z" />
          </g>
        </g>
      </g>
      <path
         sodipodi:nodetypes="czc"
         inkscape:connector-curvature="0"
         id="path3198"
         d="m 968.40019,163.18114 c 0.76397,22.32579 -25.79365,36.58388 -50.95924,26.8978 -25.16559,-9.68607 -24.53321,33.47182 -59.16628,26.14367"
         style="fill:none;stroke:#a5a295;stroke-width:2.91;stroke-linecap:butt;stroke-linejoin:miter;stroke-miterlimit:4;stroke-dasharray:none;stroke-opacity:0.49" />
      <path
         sodipodi:nodetypes="cssc"
         inkscape:connector-curvature="0"
         id="path3200"
         d="m 962.87366,143.34854 c -13.17906,-26.94628 -65.71707,59.71408 -114.8131,25.70479 -24.73483,-17.13406 -51.85824,-31.90087 -74.86086,-35.03093 -22.65515,-3.08278 -55.0269,4.87785 -64.79402,15.80388"
         style="fill:none;stroke:#a5a295;stroke-width:2.91;stroke-linecap:butt;stroke-linejoin:miter;stroke-miterlimit:4;stroke-dasharray:none;stroke-opacity:0.5" />
      <path
         sodipodi:nodetypes="cssc"
         inkscape:connector-curvature="0"
         id="path3242"
         d="M 962.87366,150.22772 C 949.6946,123.28144 896.88254,210.0463 847.78651,176.03701 823.05168,158.90295 796.20232,144.03164 773.1997,140.90158 750.54455,137.8188 718.82729,145.64352 708.4863,156.5003"
         style="font-variation-settings:normal;opacity:1;vector-effect:none;fill:none;fill-opacity:1;stroke:#0a0a0a;stroke-width:2.91;stroke-linecap:butt;stroke-linejoin:miter;stroke-miterlimit:4;stroke-dasharray:2.91, 2.91;stroke-dashoffset:0;stroke-opacity:0.121279;stop-color:#000000"
         transform="translate(4.1666681e-7,-6.8791655)">
        <animate
           attributeType="CSS"
           attributeName="stroke-dashoffset"
           from="0"
           to="6"
           dur="1s"
           repeatCount="indefinite" />
      </path>
      <path
         style="font-variation-settings:normal;vector-effect:none;fill:none;fill-opacity:1;stroke:#0a0a0a;stroke-width:2.91012;stroke-linecap:butt;stroke-linejoin:miter;stroke-miterlimit:4;stroke-dasharray:2.91012, 2.91012;stroke-dashoffset:0;stroke-opacity:0.145042;stop-color:#000000"
         d="m 703.835,177.33662 c 12.02511,24.576 38.04615,0.066 51.69796,9.85155 23.16364,16.47608 48.91622,46.00233 82.19847,36.57508"
         id="path3280"
         inkscape:connector-curvature="0"
         sodipodi:nodetypes="ccc"
         transform="translate(4.1666681e-7,-6.8791655)">
        <animate
           attributeType="CSS"
           attributeName="stroke-dashoffset"
           from="6"
           to="0"
           dur="1s"
           repeatCount="indefinite" />
      </path>
      <path
         sodipodi:nodetypes="czc"
         inkscape:connector-curvature="0"
         id="path3305"
         d="m 968.40019,170.06032 c 0.76397,22.32579 -25.79365,36.58388 -50.95924,26.8978 -25.16559,-9.68607 -24.53321,33.47182 -59.16628,26.14367"
         style="font-variation-settings:normal;vector-effect:none;fill:none;fill-opacity:1;stroke:#0a0a0a;stroke-width:2.91;stroke-linecap:butt;stroke-linejoin:miter;stroke-miterlimit:4;stroke-dasharray:2.91, 2.91;stroke-dashoffset:0;stroke-opacity:0.122738;stop-color:#000000"
         transform="translate(4.1666681e-7,-6.8791655)">
        <animate
           attributeType="CSS"
           attributeName="stroke-dashoffset"
           from="6"
           to="0"
           dur="1s"
           repeatCount="indefinite" />
      </path>
      <g
         id="g1116"
         transform="matrix(0.47982897,0,0,0.47982897,500.76503,77.950503)"
         style="opacity:0.617308">
        <g
           transform="translate(-230.59593,-41.369478)"
           id="g2684">
          <g
             id="g3081"
             style="fill:#167ad0;fill-opacity:1;stroke-width:0.928798"
             transform="matrix(1.076657,0,0,1.076657,73.758509,97.868994)">
            <path
               sodipodi:nodetypes="ccccccccccccc"
               class="cls-2"
               d="m 745.87753,172.63696 v 4.85137 h 22.98034 c 2.2593,0.003 4.09018,1.83346 4.09267,4.09276 v 5.9097 c -0.003,2.25927 -1.8334,4.09013 -4.09267,4.09266 h -18.91705 c -3.53336,0.32052 -7.95149,-0.0586 -15.19395,0.2406 0,0 0.22261,6.30465 4.662,6.35743 h 35.38841 c 2.62096,-0.008 4.74377,-2.13047 4.75145,-4.75143 v -20.79309 z"
               id="path2406"
               style="fill:#167ad0;fill-opacity:1;stroke-width:0.245745" />
            <path
               class="cls-2"
               d="m 768.32867,186.96157 v -4.85138 h -22.98035 a 4.097363,4.097363 0 0 1 -4.09267,-4.09276 v -5.90967 a 4.0973399,4.0973399 0 0 1 4.09267,-4.09267 h 34.20038 v -1.8466 a 4.7654107,4.7654107 0 0 0 -4.75145,-4.75144 h -35.38841 a 4.7654074,4.7654074 0 0 0 -4.75145,4.75143 v 20.79309 z"
               id="path2408"
               style="fill:#167ad0;fill-opacity:1;stroke-width:0.245745" />
          </g>
        </g>
        <g
           transform="matrix(1.1395405,0,0,1.1395405,11.043852,95.135797)"
           style="fill:#167ad0;fill-opacity:1;stroke-width:0.872168"
           id="g3231" />
        <g
           id="g2692"
           transform="translate(-411.2032,-113.61196)">
          <g
             transform="matrix(1.076657,0,0,1.076657,73.758509,97.868994)"
             style="fill:#167ad0;fill-opacity:1;stroke-width:0.928798"
             id="g2690">
            <path
               style="fill:#167ad0;fill-opacity:1;stroke-width:0.245745"
               id="path2686"
               d="m 745.87753,172.63696 v 4.85137 h 22.98034 c 2.2593,0.003 4.09018,1.83346 4.09267,4.09276 v 5.9097 c -0.003,2.25927 -1.8334,4.09013 -4.09267,4.09266 h -18.91705 c -3.53336,0.32052 -7.95149,-0.0586 -15.19395,0.2406 0,0 0.22261,6.30465 4.662,6.35743 h 35.38841 c 2.62096,-0.008 4.74377,-2.13047 4.75145,-4.75143 v -20.79309 z"
               class="cls-2"
               sodipodi:nodetypes="ccccccccccccc" />
            <path
               style="fill:#167ad0;fill-opacity:1;stroke-width:0.245745"
               id="path2688"
               d="m 768.32867,186.96157 v -4.85138 h -22.98035 a 4.097363,4.097363 0 0 1 -4.09267,-4.09276 v -5.90967 a 4.0973399,4.0973399 0 0 1 4.09267,-4.09267 h 34.20038 v -1.8466 a 4.7654107,4.7654107 0 0 0 -4.75145,-4.75144 h -35.38841 a 4.7654074,4.7654074 0 0 0 -4.75145,4.75143 v 20.79309 z"
               class="cls-2" />
          </g>
        </g>
        <g
           transform="translate(35.760182,-110.15392)"
           id="g2700">
          <g
             id="g2698"
             style="fill:#167ad0;fill-opacity:1;stroke-width:0.928798"
             transform="matrix(1.076657,0,0,1.076657,73.758509,97.868994)">
            <path
               sodipodi:nodetypes="ccccccccccccc"
               class="cls-2"
               d="m 745.87753,172.63696 v 4.85137 h 22.98034 c 2.2593,0.003 4.09018,1.83346 4.09267,4.09276 v 5.9097 c -0.003,2.25927 -1.8334,4.09013 -4.09267,4.09266 h -18.91705 c -3.53336,0.32052 -7.95149,-0.0586 -15.19395,0.2406 0,0 0.22261,6.30465 4.662,6.35743 h 35.38841 c 2.62096,-0.008 4.74377,-2.13047 4.75145,-4.75143 v -20.79309 z"
               id="path2694"
               style="fill:#167ad0;fill-opacity:1;stroke-width:0.245745" />
            <path
               class="cls-2"
               d="m 768.32867,186.96157 v -4.85138 h -22.98035 a 4.097363,4.097363 0 0 1 -4.09267,-4.09276 v -5.90967 a 4.0973399,4.0973399 0 0 1 4.09267,-4.09267 h 34.20038 v -1.8466 a 4.7654107,4.7654107 0 0 0 -4.75145,-4.75144 h -35.38841 a 4.7654074,4.7654074 0 0 0 -4.75145,4.75143 v 20.79309 z"
               id="path2696"
               style="fill:#167ad0;fill-opacity:1;stroke-width:0.245745" />
          </g>
        </g>
      </g>
    </g>
  </g>
</svg>
