<?xml version="1.0" encoding="UTF-8" standalone="no"?>
<svg
   xmlns:dc="http://purl.org/dc/elements/1.1/"
   xmlns:cc="http://creativecommons.org/ns#"
   xmlns:rdf="http://www.w3.org/1999/02/22-rdf-syntax-ns#"
   xmlns:svg="http://www.w3.org/2000/svg"
   xmlns="http://www.w3.org/2000/svg"
   xmlns:sodipodi="http://sodipodi.sourceforge.net/DTD/sodipodi-0.dtd"
   xmlns:inkscape="http://www.inkscape.org/namespaces/inkscape"
   id="Layer_1"
   data-name="Layer 1"
   viewBox="0 0 769.97223 137.81894"
   version="1.1"
   sodipodi:docname="logo-submariner-blue.svg"
   inkscape:version="1.0 (4035a4fb49, 2020-05-01)"
   width="203.72182mm"
   height="36.4646mm">
  <metadata
     id="metadata108">
    <rdf:RDF>
      <cc:Work
         rdf:about="">
        <dc:format>image/svg+xml</dc:format>
        <dc:type
           rdf:resource="http://purl.org/dc/dcmitype/StillImage" />
        <dc:title></dc:title>
      </cc:Work>
    </rdf:RDF>
  </metadata>
  <sodipodi:namedview
     inkscape:document-rotation="0"
     pagecolor="#ffffff"
     bordercolor="#666666"
     borderopacity="1"
     objecttolerance="10"
     gridtolerance="10"
     guidetolerance="10"
     inkscape:pageopacity="0"
     inkscape:pageshadow="2"
     inkscape:window-width="1685"
     inkscape:window-height="886"
     id="namedview106"
     showgrid="false"
     inkscape:zoom="0.53774217"
     inkscape:cx="-158.6969"
     inkscape:cy="336.06354"
     inkscape:window-x="0"
     inkscape:window-y="27"
     inkscape:window-maximized="0"
     inkscape:current-layer="Layer_1"
     units="mm" />
  <defs
     id="defs79">
    <style
       id="style77">.cls-1{fill:#eeeeee;}.cls-2{fill:#eeeeee;}</style>
  </defs>
  <g
     id="g1005"
     transform="scale(1.2352294)">
    <path
       style="fill:#1c90f4;fill-opacity:1"
       id="path81"
       d="m 174.96678,64.33009 c -0.89765,4.04 0.67354,8.67926 8.60557,8.67926 5.23788,0 7.03378,-2.09491 7.03378,-4.86458 0,-4.18982 -4.19043,-5.23727 -9.1293,-7.03256 -7.4077,-2.54556 -16.537,-6.13614 -16.537,-16.68741 0,-9.42831 7.25849,-15.19053 19.60506,-14.89091 15.11562,0.2984 19.38095,9.2042 17.73487,16.91152 l -11.44893,1.04745 c 0.74845,-5.83651 -1.34707,-9.1299 -7.25849,-9.1299 -3.96571,0 -6.211,1.4981 -6.211,4.64046 0,4.18982 4.04122,5.46138 8.97949,7.18359 7.633,2.54313 16.6868,5.61241 16.6868,16.087 0,9.05439 -6.73416,15.56566 -19.90407,15.56566 -12.34718,0 -20.80294,-5.68792 -19.08134,-16.46209 z"
       class="cls-1" />
    <path
       style="fill:#1c90f4;fill-opacity:1"
       id="path83"
       d="M 209.46458,30.43153 H 221.961 V 62.832 c 0,6.43576 2.69415,9.12991 7.85713,9.12991 5.08868,0 8.15675,-2.61863 8.15675,-9.354 V 30.43153 h 12.12185 v 31.95224 c 0,11.59873 -7.55751,19.45586 -20.65252,19.45586 -12.27227,0 -19.97958,-7.18359 -19.97958,-18.33289 z"
       class="cls-1" />
    <path
       style="fill:#1c90f4;fill-opacity:1"
       id="path85"
       d="m 258.779,30.43153 h 21.62568 c 8.90458,0 15.63874,2.99377 15.63874,12.19676 0,6.95948 -3.8159,9.65363 -10.326,11.07622 v 0.29841 c 7.40769,0.89764 11.89713,4.78906 11.89713,12.34656 0,9.87774 -7.10807,14.59129 -16.6119,14.59129 H 258.779 Z m 17.95837,19.38035 c 3.29339,0 6.58557,-0.89643 6.58557,-5.23727 0,-4.41515 -2.91826,-5.08868 -5.83652,-5.08868 h -6.28594 v 10.32595 z m 1.19726,22.0745 c 3.81712,0 7.1093,-1.87081 7.1093,-6.884 0,-4.33963 -3.29218,-6.13614 -7.1093,-6.13614 h -6.73415 v 13.02014 z"
       class="cls-1" />
    <path
       style="fill:#1c90f4;fill-opacity:1"
       id="path87"
       d="m 304.27566,30.43153 h 15.48893 l 8.23227,22.52393 c 1.27156,3.5918 2.1692,7.25789 2.1692,7.25789 h 0.29962 a 71.28184,71.28184 0 0 1 2.17043,-7.25789 L 340.643,30.43153 h 14.7411 V 80.94077 H 343.70989 V 55.42429 c 0,-2.99256 0.82335,-10.02634 0.82335,-10.02634 h -0.2984 c 0,0 -1.49689,7.10808 -2.47,9.65242 l -9.72794,25.8904 h -5.6124 l -9.80223,-25.8904 a 79.70533,79.70533 0 0 1 -2.319,-9.2042 h -0.29962 c 0,0 0.52373,6.58556 0.52373,9.57812 v 25.51648 h -10.25172 z"
       class="cls-1" />
    <path
       style="fill:#1c90f4;fill-opacity:1"
       id="path89"
       d="m 377.01164,30.43153 h 12.64619 l 17.06133,50.50924 H 394.073 l -3.14358,-9.57812 h -16.91155 l -3.06687,9.57812 h -10.92517 z m 0,31.65262 h 10.84969 l -3.442,-10.62557 a 49.39994,49.39994 0 0 1 -1.721,-8.67926 h -0.29962 a 64.16333,64.16333 0 0 1 -1.86959,8.60374 z"
       class="cls-1" />
    <path
       style="fill:#1c90f4;fill-opacity:1"
       id="path91"
       d="m 411.35963,30.43153 h 20.80294 c 9.87652,0 16.53638,4.78906 16.53638,14.06756 a 14.13507,14.13507 0 0 1 -10.17614,13.69491 14.99055,14.99055 0 0 1 3.51628,4.78906 c 2.09613,4.26534 3.5175,8.97888 7.93264,8.97888 a 5.82,5.82 0 0 0 2.0194,-0.37392 l -0.97194,8.90459 a 24.48737,24.48737 0 0 1 -5.01439,0.67353 c -5.98632,0 -9.42831,-2.32023 -12.94459,-10.32717 -1.49688,-3.59057 -3.59179,-9.87774 -6.36024,-9.87774 h -2.844 v 19.97954 h -12.49634 z m 12.49638,9.0544 v 12.42086 h 4.48944 c 3.59179,0 7.78283,-1.12175 7.78283,-6.50884 0,-4.41514 -2.844,-5.912 -6.286,-5.912 z"
       class="cls-1" />
    <path
       style="fill:#1c90f4;fill-opacity:1"
       id="path93"
       d="m 454.98612,30.43153 h 26.04021 v 8.83029 h -6.80968 V 72.1117 h 6.80968 v 8.82907 H 454.98612 V 72.1117 h 6.73415 V 39.26182 h -6.73415 z"
       class="cls-1" />
    <path
       style="fill:#1c90f4;fill-opacity:1"
       id="path95"
       d="m 487.83722,30.43153 h 13.394 l 13.24545,25.06827 c 1.12175,2.17043 2.61863,5.98511 3.8159,8.97888 h 0.29962 c -0.14981,-2.84274 -0.52373,-6.884 -0.52373,-9.80223 V 30.43153 h 10.25166 V 80.94077 H 515.2245 L 501.45656,55.948 a 69.56462,69.56462 0 0 1 -3.66731,-8.231 h -0.29962 c 0.22533,2.844 0.59924,6.21165 0.59924,8.97888 v 24.24489 h -10.25165 z"
       class="cls-1" />
    <path
       style="fill:#1c90f4;fill-opacity:1"
       id="path97"
       d="m 537.45,30.43153 h 33.44912 V 39.71 H 549.9464 v 10.8509 h 17.58506 v 9.2785 H 549.9464 v 11.82287 h 21.7006 v 9.2785 H 537.45 Z"
       class="cls-1" />
    <path
       style="fill:#1c90f4;fill-opacity:1"
       id="path99"
       d="m 578.15826,30.43153 h 20.80293 c 9.87774,0 16.53761,4.78906 16.53761,14.06756 a 14.136,14.136 0 0 1 -10.17737,13.69491 14.994,14.994 0 0 1 3.5175,4.78906 c 2.09491,4.26534 3.51628,8.97888 7.93143,8.97888 A 5.82257,5.82257 0 0 0 618.791,71.588 l -0.97316,8.90459 a 24.48454,24.48454 0 0 1 -5.01317,0.67353 c -5.98632,0 -9.4283,-2.32023 -12.9458,-10.32717 -1.49689,-3.59057 -3.5918,-9.87774 -6.36025,-9.87774 h -2.844 v 19.97956 h -12.49636 z m 12.49637,9.0544 v 12.42086 h 4.48944 c 3.593,0 7.78283,-1.12175 7.78283,-6.50884 0,-4.41514 -2.844,-5.912 -6.28594,-5.912 z"
       class="cls-1" />
    <path
       style="fill:#1c90f4;fill-opacity:1"
       id="path101"
       d="m 33.9867,33.986 v 14.69519 h 69.6093 a 12.411,12.411 0 0 1 12.397,12.39731 v 17.90093 a 12.41094,12.41094 0 0 1 -12.397,12.397 H 0 v 5.59351 a 14.43481,14.43481 0 0 0 14.39251,14.39247 H 121.58685 A 14.43481,14.43481 0 0 0 135.97936,96.96994 V 33.986 Z"
       class="cls-2" />
    <path
       style="fill:#1c90f4;fill-opacity:1"
       id="path103"
       d="M 101.993,77.3764 V 62.68119 H 32.38367 A 12.41124,12.41124 0 0 1 19.98667,50.28387 V 32.383 a 12.41117,12.41117 0 0 1 12.397,-12.397 H 135.97936 V 14.3925 A 14.43481,14.43481 0 0 0 121.58685,0 H 14.39251 A 14.4348,14.4348 0 0 0 0,14.39247 V 77.3764 Z"
       class="cls-2" />
  </g>
</svg>
